<?xml version="1.0" encoding="utf-8"?>
<!-- Generator: Adobe Illustrator 24.1.0, SVG Export Plug-In . SVG Version: 6.00 Build 0)  -->
<svg version="1.1" id="Layer_1" xmlns="http://www.w3.org/2000/svg" xmlns:xlink="http://www.w3.org/1999/xlink" x="0px" y="0px"
	 viewBox="0 0 64 64" style="enable-background:new 0 0 64 64;" xml:space="preserve">
<style type="text/css">
	.st0{fill:#FFCF24;}
	.st1{fill:none;stroke:#110079;stroke-width:2.8246;stroke-linecap:round;stroke-linejoin:round;stroke-miterlimit:20;}
</style>
<circle class="st0" cx="18.1" cy="32" r="17.1"/>
<g id="SVGRepo_bgCarrier">
</g>
<g id="SVGRepo_tracerCarrier">
</g>
<g>
	<path class="st1" d="M32,51.2c9.6,0,17.4-7.8,17.4-17.4c0-9.6-7.8-17.4-17.4-17.4c-9.6,0-17.4,7.8-17.4,17.4
		C14.6,43.4,22.4,51.2,32,51.2z"/>
	<path class="st1" d="M32,28.7c-1.7-2-4.7-2.6-6.8-0.7c-2.2,1.9-2.5,5-0.8,7.2c1.1,1.4,3.9,4,5.8,5.7c0.6,0.6,0.9,0.8,1.3,1
		c0.3,0.1,0.7,0.1,1,0c0.4-0.1,0.7-0.4,1.3-1c1.9-1.7,4.7-4.3,5.8-5.7c1.7-2.2,1.4-5.3-0.8-7.2C36.6,26.1,33.7,26.6,32,28.7z"/>
</g>
</svg>
