<?xml version="1.0" encoding="utf-8"?>
<!-- Generator: Adobe Illustrator 24.1.0, SVG Export Plug-In . SVG Version: 6.00 Build 0)  -->
<svg version="1.1" id="Layer_1" xmlns="http://www.w3.org/2000/svg" xmlns:xlink="http://www.w3.org/1999/xlink" x="0px" y="0px"
	 viewBox="0 0 600 600" style="enable-background:new 0 0 600 600;" xml:space="preserve">
<style type="text/css">
	.st0{fill:#FF800B;}
</style>
<path class="st0" d="M224.2,152.5c4.8,0,8.7-3.9,8.7-8.7s-3.9-8.7-8.7-8.7s-8.7,3.9-8.7,8.7S219.4,152.5,224.2,152.5z"/>
<path class="st0" d="M271.3,150.2c4.8,0,8.7-3.9,8.7-8.7s-3.9-8.7-8.7-8.7c-4.8,0-8.7,3.9-8.7,8.7S266.5,150.2,271.3,150.2z"/>
<path class="st0" d="M315.2,149.1c4.8,0,8.7-3.9,8.7-8.7s-3.9-8.7-8.7-8.7s-8.7,3.9-8.7,8.7S310.4,149.1,315.2,149.1z"/>
<path class="st0" d="M364.2,152.5c4.8,0,8.7-3.9,8.7-8.7s-3.9-8.7-8.7-8.7c-4.8,0-8.7,3.9-8.7,8.7S359.4,152.5,364.2,152.5z"/>
<path class="st0" d="M174.4,192.9c4.8,0,8.7-3.9,8.7-8.7s-3.9-8.7-8.7-8.7s-8.7,3.9-8.7,8.7S169.6,192.9,174.4,192.9z"/>
<path class="st0" d="M207.7,188.9c4.8,0,8.7-3.9,8.7-8.7s-3.9-8.7-8.7-8.7s-8.7,3.9-8.7,8.7S202.9,188.9,207.7,188.9z"/>
<path class="st0" d="M249.3,191.7c4.8,0,8.7-3.9,8.7-8.7s-3.9-8.7-8.7-8.7s-8.7,3.9-8.7,8.7C240.6,187.9,244.5,191.7,249.3,191.7z"
	/>
<path class="st0" d="M296,191.7c4.8,0,8.7-3.9,8.7-8.7s-3.9-8.7-8.7-8.7s-8.7,3.9-8.7,8.7C287.3,187.9,291.2,191.7,296,191.7z"/>
<path class="st0" d="M342.6,191.7c4.8,0,8.7-3.9,8.7-8.7s-3.9-8.7-8.7-8.7s-8.7,3.9-8.7,8.7C334,187.9,337.8,191.7,342.6,191.7z"/>
<path class="st0" d="M389.3,191.7c4.8,0,8.7-3.9,8.7-8.7s-3.9-8.7-8.7-8.7s-8.7,3.9-8.7,8.7C380.6,187.9,384.5,191.7,389.3,191.7z"
	/>
<path class="st0" d="M436,191.7c4.8,0,8.7-3.9,8.7-8.7s-3.9-8.7-8.7-8.7c-4.8,0-8.7,3.9-8.7,8.7C427.3,187.9,431.2,191.7,436,191.7z
	"/>
<path class="st0" d="M403,167c4.8,0,8.7-3.9,8.7-8.7s-3.9-8.7-8.7-8.7s-8.7,3.9-8.7,8.7S398.2,167,403,167z"/>
<path class="st0" d="M144.7,235.1c4.8,0,8.7-3.9,8.7-8.7s-3.9-8.7-8.7-8.7s-8.7,3.9-8.7,8.7S139.9,235.1,144.7,235.1z"/>
<path class="st0" d="M177.5,228.2c4.8,0,8.7-3.9,8.7-8.7s-3.9-8.7-8.7-8.7s-8.7,3.9-8.7,8.7S172.7,228.2,177.5,228.2z"/>
<path class="st0" d="M224.2,228.2c4.8,0,8.7-3.9,8.7-8.7s-3.9-8.7-8.7-8.7s-8.7,3.9-8.7,8.7S219.4,228.2,224.2,228.2z"/>
<path class="st0" d="M270.9,228.2c4.8,0,8.7-3.9,8.7-8.7s-3.9-8.7-8.7-8.7s-8.7,3.9-8.7,8.7S266.1,228.2,270.9,228.2z"/>
<path class="st0" d="M317.5,228.2c4.8,0,8.7-3.9,8.7-8.7s-3.9-8.7-8.7-8.7s-8.7,3.9-8.7,8.7S312.7,228.2,317.5,228.2z"/>
<path class="st0" d="M364.2,228.2c4.8,0,8.7-3.9,8.7-8.7s-3.9-8.7-8.7-8.7c-4.8,0-8.7,3.9-8.7,8.7S359.4,228.2,364.2,228.2z"/>
<path class="st0" d="M410.9,228.2c4.8,0,8.7-3.9,8.7-8.7s-3.9-8.7-8.7-8.7c-4.8,0-8.7,3.9-8.7,8.7S406.1,228.2,410.9,228.2z"/>
<path class="st0" d="M457.6,228.2c4.8,0,8.7-3.9,8.7-8.7s-3.9-8.7-8.7-8.7s-8.7,3.9-8.7,8.7S452.8,228.2,457.6,228.2z"/>
<path class="st0" d="M155.9,267.4c4.8,0,8.7-3.9,8.7-8.7c0-4.8-3.9-8.7-8.7-8.7s-8.7,3.9-8.7,8.7
	C147.3,263.5,151.1,267.4,155.9,267.4z"/>
<path class="st0" d="M202.6,267.4c4.8,0,8.7-3.9,8.7-8.7c0-4.8-3.9-8.7-8.7-8.7s-8.7,3.9-8.7,8.7
	C193.9,263.5,197.8,267.4,202.6,267.4z"/>
<path class="st0" d="M249.3,267.4c4.8,0,8.7-3.9,8.7-8.7c0-4.8-3.9-8.7-8.7-8.7s-8.7,3.9-8.7,8.7
	C240.6,263.5,244.5,267.4,249.3,267.4z"/>
<path class="st0" d="M296,267.4c4.8,0,8.7-3.9,8.7-8.7c0-4.8-3.9-8.7-8.7-8.7s-8.7,3.9-8.7,8.7C287.3,263.5,291.2,267.4,296,267.4z"
	/>
<path class="st0" d="M342.6,267.4c4.8,0,8.7-3.9,8.7-8.7c0-4.8-3.9-8.7-8.7-8.7s-8.7,3.9-8.7,8.7C334,263.5,337.8,267.4,342.6,267.4
	z"/>
<path class="st0" d="M389.3,267.4c4.8,0,8.7-3.9,8.7-8.7c0-4.8-3.9-8.7-8.7-8.7s-8.7,3.9-8.7,8.7
	C380.6,263.5,384.5,267.4,389.3,267.4z"/>
<path class="st0" d="M436,267.4c4.8,0,8.7-3.9,8.7-8.7c0-4.8-3.9-8.7-8.7-8.7c-4.8,0-8.7,3.9-8.7,8.7
	C427.3,263.5,431.2,267.4,436,267.4z"/>
<path class="st0" d="M482.7,267.4c4.8,0,8.7-3.9,8.7-8.7c0-4.8-3.9-8.7-8.7-8.7c-4.8,0-8.7,3.9-8.7,8.7
	C474,263.5,477.9,267.4,482.7,267.4z"/>
<path class="st0" d="M130.8,303.9c4.8,0,8.7-3.9,8.7-8.7s-3.9-8.7-8.7-8.7s-8.7,3.9-8.7,8.7S126,303.9,130.8,303.9z"/>
<path class="st0" d="M177.5,303.9c4.8,0,8.7-3.9,8.7-8.7s-3.9-8.7-8.7-8.7s-8.7,3.9-8.7,8.7S172.7,303.9,177.5,303.9z"/>
<path class="st0" d="M224.2,303.9c4.8,0,8.7-3.9,8.7-8.7s-3.9-8.7-8.7-8.7s-8.7,3.9-8.7,8.7S219.4,303.9,224.2,303.9z"/>
<path class="st0" d="M270.9,303.9c4.8,0,8.7-3.9,8.7-8.7s-3.9-8.7-8.7-8.7s-8.7,3.9-8.7,8.7S266.1,303.9,270.9,303.9z"/>
<path class="st0" d="M317.5,303.9c4.8,0,8.7-3.9,8.7-8.7s-3.9-8.7-8.7-8.7s-8.7,3.9-8.7,8.7S312.7,303.9,317.5,303.9z"/>
<path class="st0" d="M364.2,303.9c4.8,0,8.7-3.9,8.7-8.7s-3.9-8.7-8.7-8.7c-4.8,0-8.7,3.9-8.7,8.7S359.4,303.9,364.2,303.9z"/>
<path class="st0" d="M410.9,303.9c4.8,0,8.7-3.9,8.7-8.7s-3.9-8.7-8.7-8.7c-4.8,0-8.7,3.9-8.7,8.7S406.1,303.9,410.9,303.9z"/>
<path class="st0" d="M457.6,303.9c4.8,0,8.7-3.9,8.7-8.7s-3.9-8.7-8.7-8.7s-8.7,3.9-8.7,8.7S452.8,303.9,457.6,303.9z"/>
<path class="st0" d="M155.9,342.1c4.8,0,8.7-3.9,8.7-8.7s-3.9-8.7-8.7-8.7s-8.7,3.9-8.7,8.7S151.1,342.1,155.9,342.1z"/>
<path class="st0" d="M202.6,342.1c4.8,0,8.7-3.9,8.7-8.7s-3.9-8.7-8.7-8.7s-8.7,3.9-8.7,8.7S197.8,342.1,202.6,342.1z"/>
<path class="st0" d="M249.3,342.1c4.8,0,8.7-3.9,8.7-8.7s-3.9-8.7-8.7-8.7s-8.7,3.9-8.7,8.7S244.5,342.1,249.3,342.1z"/>
<path class="st0" d="M296,342.1c4.8,0,8.7-3.9,8.7-8.7s-3.9-8.7-8.7-8.7s-8.7,3.9-8.7,8.7S291.2,342.1,296,342.1z"/>
<path class="st0" d="M342.6,342.1c4.8,0,8.7-3.9,8.7-8.7s-3.9-8.7-8.7-8.7s-8.7,3.9-8.7,8.7S337.8,342.1,342.6,342.1z"/>
<path class="st0" d="M389.3,342.1c4.8,0,8.7-3.9,8.7-8.7s-3.9-8.7-8.7-8.7s-8.7,3.9-8.7,8.7S384.5,342.1,389.3,342.1z"/>
<path class="st0" d="M436,342.1c4.8,0,8.7-3.9,8.7-8.7s-3.9-8.7-8.7-8.7c-4.8,0-8.7,3.9-8.7,8.7S431.2,342.1,436,342.1z"/>
<path class="st0" d="M482.7,342.1c4.8,0,8.7-3.9,8.7-8.7s-3.9-8.7-8.7-8.7c-4.8,0-8.7,3.9-8.7,8.7S477.9,342.1,482.7,342.1z"/>
<path class="st0" d="M136.1,372.6c4.8,0,8.7-3.9,8.7-8.7s-3.9-8.7-8.7-8.7s-8.7,3.9-8.7,8.7S131.3,372.6,136.1,372.6z"/>
<path class="st0" d="M177.5,379.6c4.8,0,8.7-3.9,8.7-8.7c0-4.8-3.9-8.7-8.7-8.7s-8.7,3.9-8.7,8.7S172.7,379.6,177.5,379.6z"/>
<path class="st0" d="M224.2,379.6c4.8,0,8.7-3.9,8.7-8.7c0-4.8-3.9-8.7-8.7-8.7s-8.7,3.9-8.7,8.7S219.4,379.6,224.2,379.6z"/>
<path class="st0" d="M270.9,379.6c4.8,0,8.7-3.9,8.7-8.7c0-4.8-3.9-8.7-8.7-8.7s-8.7,3.9-8.7,8.7
	C262.2,375.7,266.1,379.6,270.9,379.6z"/>
<path class="st0" d="M317.5,379.6c4.8,0,8.7-3.9,8.7-8.7c0-4.8-3.9-8.7-8.7-8.7s-8.7,3.9-8.7,8.7S312.7,379.6,317.5,379.6z"/>
<path class="st0" d="M364.2,379.6c4.8,0,8.7-3.9,8.7-8.7c0-4.8-3.9-8.7-8.7-8.7c-4.8,0-8.7,3.9-8.7,8.7S359.4,379.6,364.2,379.6z"/>
<path class="st0" d="M410.9,379.6c4.8,0,8.7-3.9,8.7-8.7c0-4.8-3.9-8.7-8.7-8.7c-4.8,0-8.7,3.9-8.7,8.7
	C402.2,375.7,406.1,379.6,410.9,379.6z"/>
<path class="st0" d="M454.4,379.6c4.8,0,8.7-3.9,8.7-8.7c0-4.8-3.9-8.7-8.7-8.7s-8.7,3.9-8.7,8.7
	C445.7,375.7,449.6,379.6,454.4,379.6z"/>
<path class="st0" d="M155.9,418.8c4.8,0,8.7-3.9,8.7-8.7s-3.9-8.7-8.7-8.7s-8.7,3.9-8.7,8.7S151.1,418.8,155.9,418.8z"/>
<path class="st0" d="M202.6,418.8c4.8,0,8.7-3.9,8.7-8.7s-3.9-8.7-8.7-8.7s-8.7,3.9-8.7,8.7S197.8,418.8,202.6,418.8z"/>
<path class="st0" d="M249.3,418.8c4.8,0,8.7-3.9,8.7-8.7s-3.9-8.7-8.7-8.7s-8.7,3.9-8.7,8.7S244.5,418.8,249.3,418.8z"/>
<path class="st0" d="M296,418.8c4.8,0,8.7-3.9,8.7-8.7s-3.9-8.7-8.7-8.7s-8.7,3.9-8.7,8.7S291.2,418.8,296,418.8z"/>
<path class="st0" d="M342.6,418.8c4.8,0,8.7-3.9,8.7-8.7s-3.9-8.7-8.7-8.7s-8.7,3.9-8.7,8.7S337.8,418.8,342.6,418.8z"/>
<path class="st0" d="M389.3,418.8c4.8,0,8.7-3.9,8.7-8.7s-3.9-8.7-8.7-8.7s-8.7,3.9-8.7,8.7S384.5,418.8,389.3,418.8z"/>
<path class="st0" d="M425.6,414.2c4.8,0,8.7-3.9,8.7-8.7s-3.9-8.7-8.7-8.7s-8.7,3.9-8.7,8.7S420.8,414.2,425.6,414.2z"/>
<path class="st0" d="M461.3,410.1c4.8,0,8.7-3.9,8.7-8.7s-3.9-8.7-8.7-8.7s-8.7,3.9-8.7,8.7S456.5,410.1,461.3,410.1z"/>
<path class="st0" d="M184.4,446c4.8,0,8.7-3.9,8.7-8.7s-3.9-8.7-8.7-8.7s-8.7,3.9-8.7,8.7S179.6,446,184.4,446z"/>
<path class="st0" d="M224.2,455.3c4.8,0,8.7-3.9,8.7-8.7s-3.9-8.7-8.7-8.7s-8.7,3.9-8.7,8.7S219.4,455.3,224.2,455.3z"/>
<path class="st0" d="M270.9,455.3c4.8,0,8.7-3.9,8.7-8.7s-3.9-8.7-8.7-8.7s-8.7,3.9-8.7,8.7S266.1,455.3,270.9,455.3z"/>
<path class="st0" d="M317.5,455.3c4.8,0,8.7-3.9,8.7-8.7s-3.9-8.7-8.7-8.7s-8.7,3.9-8.7,8.7S312.7,455.3,317.5,455.3z"/>
<path class="st0" d="M370.6,455.3c4.8,0,8.7-3.9,8.7-8.7s-3.9-8.7-8.7-8.7s-8.7,3.9-8.7,8.7S365.8,455.3,370.6,455.3z"/>
<path class="st0" d="M421.3,450.6c4.8,0,8.7-3.9,8.7-8.7s-3.9-8.7-8.7-8.7s-8.7,3.9-8.7,8.7S416.5,450.6,421.3,450.6z"/>
<path class="st0" d="M249.9,487.6c4.8,0,8.7-3.9,8.7-8.7c0-4.8-3.9-8.7-8.7-8.7s-8.7,3.9-8.7,8.7
	C241.2,483.7,245.1,487.6,249.9,487.6z"/>
<path class="st0" d="M296,494.5c4.8,0,8.7-3.9,8.7-8.7c0-4.8-3.9-8.7-8.7-8.7s-8.7,3.9-8.7,8.7S291.2,494.5,296,494.5z"/>
<path class="st0" d="M342.6,494.5c4.8,0,8.7-3.9,8.7-8.7c0-4.8-3.9-8.7-8.7-8.7s-8.7,3.9-8.7,8.7C334,490.6,337.8,494.5,342.6,494.5
	z"/>
<path class="st0" d="M384.7,479.5c4.8,0,8.7-3.9,8.7-8.7s-3.9-8.7-8.7-8.7s-8.7,3.9-8.7,8.7S379.9,479.5,384.7,479.5z"/>
</svg>
