<?xml version="1.0" encoding="utf-8"?>
<!-- Generator: Adobe Illustrator 24.1.0, SVG Export Plug-In . SVG Version: 6.00 Build 0)  -->
<svg version="1.1" id="Layer_1" xmlns="http://www.w3.org/2000/svg" xmlns:xlink="http://www.w3.org/1999/xlink" x="0px" y="0px"
	 viewBox="0 0 600 600" style="enable-background:new 0 0 600 600;" xml:space="preserve">
<style type="text/css">
	.st0{fill:#FFCF24;}
</style>
<g>
	<path class="st0" d="M192.7,95.7C192.8,95.7,192.8,95.7,192.7,95.7C192.8,95.6,192.7,95.6,192.7,95.7
		C192.7,95.6,192.7,95.6,192.7,95.7L192.7,95.7z"/>
	<path class="st0" d="M217.7,95.9c0.2,0,0.3-0.1,0.3-0.3c0-0.2-0.1-0.3-0.3-0.3s-0.3,0.1-0.3,0.3S217.5,95.9,217.7,95.9z"/>
	<circle class="st0" cx="242.6" cy="95.7" r="0.6"/>
	<path class="st0" d="M267.6,96.5c0.5,0,0.8-0.4,0.8-0.8c0-0.5-0.4-0.8-0.8-0.8c-0.5,0-0.8,0.4-0.8,0.8
		C266.8,96.1,267.1,96.5,267.6,96.5z"/>
	<circle class="st0" cx="292.5" cy="95.7" r="0.9"/>
	<path class="st0" d="M317.5,96.5c0.5,0,0.8-0.4,0.8-0.8c0-0.5-0.4-0.8-0.8-0.8c-0.5,0-0.8,0.4-0.8,0.8S317,96.5,317.5,96.5z"/>
	<path class="st0" d="M342.4,96.3c0.3,0,0.6-0.3,0.6-0.6s-0.3-0.6-0.6-0.6c-0.3,0-0.6,0.3-0.6,0.6S342.1,96.3,342.4,96.3z"/>
	<path class="st0" d="M367.4,95.9c0.2,0,0.3-0.1,0.3-0.3c0-0.2-0.1-0.3-0.3-0.3c-0.2,0-0.3,0.1-0.3,0.3S367.2,95.9,367.4,95.9z"/>
	<path class="st0" d="M392.3,95.7C392.4,95.7,392.4,95.7,392.3,95.7C392.4,95.6,392.3,95.6,392.3,95.7
		C392.3,95.6,392.3,95.6,392.3,95.7L392.3,95.7z"/>
	<circle class="st0" cx="167.8" cy="120.6" r="0.2"/>
	<path class="st0" d="M192.7,121.4c0.5,0,0.8-0.4,0.8-0.8c0-0.5-0.4-0.8-0.8-0.8s-0.8,0.4-0.8,0.8
		C191.9,121.1,192.3,121.4,192.7,121.4z"/>
	<path class="st0" d="M217.7,122c0.8,0,1.4-0.6,1.4-1.4s-0.6-1.4-1.4-1.4c-0.8,0-1.4,0.6-1.4,1.4S216.9,122,217.7,122z"/>
	<path class="st0" d="M242.6,122.4c1,0,1.8-0.8,1.8-1.8s-0.8-1.8-1.8-1.8s-1.8,0.8-1.8,1.8S241.6,122.4,242.6,122.4z"/>
	<path class="st0" d="M267.6,122.7c1.2,0,2.1-1,2.1-2.1c0-1.2-1-2.1-2.1-2.1c-1.2,0-2.1,1-2.1,2.1
		C265.4,121.8,266.4,122.7,267.6,122.7z"/>
	<circle class="st0" cx="292.5" cy="120.6" r="2.2"/>
	<path class="st0" d="M317.5,122.7c1.2,0,2.1-1,2.1-2.1c0-1.2-1-2.1-2.1-2.1c-1.2,0-2.1,1-2.1,2.1
		C315.4,121.8,316.3,122.7,317.5,122.7z"/>
	<path class="st0" d="M342.4,122.5c1,0,1.9-0.8,1.9-1.9c0-1-0.8-1.9-1.9-1.9c-1,0-1.9,0.8-1.9,1.9
		C340.6,121.6,341.4,122.5,342.4,122.5z"/>
	<circle class="st0" cx="367.4" cy="120.6" r="1.5"/>
	<path class="st0" d="M392.3,121.4c0.5,0,0.8-0.4,0.8-0.8c0-0.5-0.4-0.8-0.8-0.8c-0.5,0-0.8,0.4-0.8,0.8
		C391.5,121.1,391.9,121.4,392.3,121.4z"/>
	<path class="st0" d="M417.3,120.9c0.2,0,0.3-0.1,0.3-0.3c0-0.2-0.1-0.3-0.3-0.3c-0.2,0-0.3,0.1-0.3,0.3S417.1,120.9,417.3,120.9z"
		/>
	<path class="st0" d="M142.8,145.8c0.2,0,0.3-0.1,0.3-0.3s-0.1-0.3-0.3-0.3s-0.3,0.1-0.3,0.3C142.6,145.7,142.7,145.8,142.8,145.8z"
		/>
	<circle class="st0" cx="167.8" cy="145.6" r="1.1"/>
	<path class="st0" d="M192.7,147.5c1.1,0,1.9-0.9,1.9-1.9s-0.9-1.9-1.9-1.9s-1.9,0.9-1.9,1.9S191.7,147.5,192.7,147.5z"/>
	<circle class="st0" cx="217.7" cy="145.6" r="2.6"/>
	<circle class="st0" cx="242.6" cy="145.6" r="3.1"/>
	<path class="st0" d="M267.6,148.9c1.9,0,3.4-1.5,3.4-3.4s-1.5-3.4-3.4-3.4s-3.4,1.5-3.4,3.4S265.7,148.9,267.6,148.9z"/>
	<path class="st0" d="M292.5,149.1c1.9,0,3.5-1.6,3.5-3.5s-1.6-3.5-3.5-3.5s-3.5,1.6-3.5,3.5S290.6,149.1,292.5,149.1z"/>
	<circle class="st0" cx="317.5" cy="145.6" r="3.5"/>
	<circle class="st0" cx="342.4" cy="145.6" r="3.1"/>
	<path class="st0" d="M367.4,148.2c1.5,0,2.6-1.2,2.6-2.6c0-1.5-1.2-2.6-2.6-2.6s-2.6,1.2-2.6,2.6S365.9,148.2,367.4,148.2z"/>
	<path class="st0" d="M392.3,147.5c1.1,0,1.9-0.9,1.9-1.9s-0.9-1.9-1.9-1.9s-1.9,0.9-1.9,1.9S391.3,147.5,392.3,147.5z"/>
	<path class="st0" d="M417.3,146.7c0.6,0,1.2-0.5,1.2-1.2c0-0.6-0.5-1.2-1.2-1.2c-0.6,0-1.2,0.5-1.2,1.2
		C416.1,146.2,416.7,146.7,417.3,146.7z"/>
	<circle class="st0" cx="442.3" cy="145.6" r="0.3"/>
	<circle class="st0" cx="117.9" cy="170.5" r="0.2"/>
	<circle class="st0" cx="142.8" cy="170.5" r="1.1"/>
	<path class="st0" d="M167.8,172.6c1.1,0,2.1-0.9,2.1-2.1c0-1.1-0.9-2.1-2.1-2.1s-2.1,0.9-2.1,2.1
		C165.7,171.7,166.6,172.6,167.8,172.6z"/>
	<path class="st0" d="M192.7,173.5c1.6,0,3-1.3,3-3c0-1.6-1.3-3-3-3s-3,1.3-3,3C189.8,172.2,191.1,173.5,192.7,173.5z"/>
	<path class="st0" d="M217.7,174.2c2.1,0,3.7-1.7,3.7-3.7c0-2.1-1.7-3.7-3.7-3.7c-2.1,0-3.7,1.7-3.7,3.7
		C214,172.6,215.6,174.2,217.7,174.2z"/>
	<path class="st0" d="M242.6,174.8c2.4,0,4.3-1.9,4.3-4.3c0-2.4-1.9-4.3-4.3-4.3s-4.3,1.9-4.3,4.3
		C238.4,172.9,240.3,174.8,242.6,174.8z"/>
	<path class="st0" d="M267.6,175.2c2.6,0,4.7-2.1,4.7-4.7c0-2.6-2.1-4.7-4.7-4.7s-4.7,2.1-4.7,4.7
		C262.9,173.1,265,175.2,267.6,175.2z"/>
	<path class="st0" d="M292.5,175.4c2.7,0,4.8-2.2,4.8-4.8c0-2.7-2.2-4.8-4.8-4.8c-2.7,0-4.8,2.2-4.8,4.8S289.9,175.4,292.5,175.4z"
		/>
	<path class="st0" d="M317.5,175.2c2.6,0,4.7-2.1,4.7-4.7c0-2.6-2.1-4.7-4.7-4.7s-4.7,2.1-4.7,4.7
		C312.8,173.1,314.9,175.2,317.5,175.2z"/>
	<path class="st0" d="M342.4,174.9c2.4,0,4.4-2,4.4-4.4s-2-4.4-4.4-4.4s-4.4,2-4.4,4.4C338.1,172.9,340,174.9,342.4,174.9z"/>
	<path class="st0" d="M367.4,174.3c2.1,0,3.8-1.7,3.8-3.8s-1.7-3.8-3.8-3.8c-2.1,0-3.8,1.7-3.8,3.8S365.3,174.3,367.4,174.3z"/>
	<path class="st0" d="M392.3,173.6c1.7,0,3-1.4,3-3c0-1.7-1.4-3-3-3s-3,1.4-3,3C389.3,172.2,390.7,173.6,392.3,173.6z"/>
	<path class="st0" d="M417.3,172.7c1.2,0,2.1-1,2.1-2.1c0-1.2-1-2.1-2.1-2.1c-1.2,0-2.1,1-2.1,2.1
		C415.2,171.7,416.1,172.7,417.3,172.7z"/>
	<path class="st0" d="M442.3,171.8c0.7,0,1.2-0.6,1.2-1.2c0-0.7-0.6-1.2-1.2-1.2c-0.7,0-1.2,0.6-1.2,1.2
		C441,171.2,441.6,171.8,442.3,171.8z"/>
	<path class="st0" d="M467.2,170.8c0.2,0,0.3-0.1,0.3-0.3s-0.1-0.3-0.3-0.3c-0.2,0-0.3,0.1-0.3,0.3
		C466.9,170.7,467.1,170.8,467.2,170.8z"/>
	<path class="st0" d="M92.9,195.5C93,195.5,93,195.5,92.9,195.5c0.1-0.1,0-0.1,0-0.1S92.9,195.4,92.9,195.5L92.9,195.5z"/>
	<path class="st0" d="M117.9,196.3c0.5,0,0.8-0.4,0.8-0.8c0-0.5-0.4-0.8-0.8-0.8s-0.8,0.4-0.8,0.8
		C117.1,195.9,117.4,196.3,117.9,196.3z"/>
	<path class="st0" d="M142.8,197.4c1.1,0,1.9-0.9,1.9-1.9s-0.9-1.9-1.9-1.9s-1.9,0.9-1.9,1.9S141.8,197.4,142.8,197.4z"/>
	<path class="st0" d="M167.8,198.4c1.6,0,3-1.3,3-3c0-1.6-1.3-3-3-3s-3,1.3-3,3C164.8,197.1,166.1,198.4,167.8,198.4z"/>
	<path class="st0" d="M192.7,199.4c2.2,0,3.9-1.8,3.9-3.9c0-2.2-1.8-3.9-3.9-3.9c-2.2,0-3.9,1.8-3.9,3.9
		C188.8,197.6,190.6,199.4,192.7,199.4z"/>
	<path class="st0" d="M217.7,200.3c2.7,0,4.8-2.2,4.8-4.8c0-2.7-2.2-4.8-4.8-4.8c-2.7,0-4.8,2.2-4.8,4.8
		C212.8,198.1,215,200.3,217.7,200.3z"/>
	<path class="st0" d="M242.6,201c3.1,0,5.5-2.5,5.5-5.5s-2.5-5.5-5.5-5.5s-5.5,2.5-5.5,5.5S239.6,201,242.6,201z"/>
	<path class="st0" d="M267.6,201.4c3.3,0,6-2.7,6-6s-2.7-6-6-6s-6,2.7-6,6S264.3,201.4,267.6,201.4z"/>
	<path class="st0" d="M292.5,201.6c3.4,0,6.2-2.8,6.2-6.2s-2.8-6.2-6.2-6.2s-6.2,2.8-6.2,6.2S289.1,201.6,292.5,201.6z"/>
	<circle class="st0" cx="317.5" cy="195.5" r="6"/>
	<path class="st0" d="M342.4,201c3.1,0,5.5-2.5,5.5-5.5s-2.5-5.5-5.5-5.5c-3.1,0-5.5,2.5-5.5,5.5S339.4,201,342.4,201z"/>
	<path class="st0" d="M367.4,200.4c2.7,0,4.9-2.2,4.9-4.9s-2.2-4.9-4.9-4.9s-4.9,2.2-4.9,4.9S364.7,200.4,367.4,200.4z"/>
	<circle class="st0" cx="392.3" cy="195.5" r="4"/>
	<path class="st0" d="M417.3,198.5c1.7,0,3-1.4,3-3s-1.4-3-3-3c-1.7,0-3,1.4-3,3S415.6,198.5,417.3,198.5z"/>
	<circle class="st0" cx="442.3" cy="195.5" r="2"/>
	<circle class="st0" cx="467.2" cy="195.5" r="0.9"/>
	<path class="st0" d="M492.2,195.5L492.2,195.5c0.1-0.1,0-0.1,0-0.1C492.1,195.4,492.1,195.4,492.2,195.5
		C492.1,195.5,492.1,195.5,492.2,195.5z"/>
	<path class="st0" d="M92.9,220.7c0.2,0,0.3-0.1,0.3-0.3s-0.1-0.3-0.3-0.3c-0.2,0-0.3,0.1-0.3,0.3C92.7,220.6,92.8,220.7,92.9,220.7
		z"/>
	<path class="st0" d="M117.9,221.8c0.8,0,1.4-0.6,1.4-1.4c0-0.8-0.6-1.4-1.4-1.4s-1.4,0.6-1.4,1.4S117.1,221.8,117.9,221.8z"/>
	<circle class="st0" cx="142.8" cy="220.4" r="2.6"/>
	<path class="st0" d="M167.8,224.1c2.1,0,3.7-1.7,3.7-3.7c0-2.1-1.7-3.7-3.7-3.7s-3.7,1.7-3.7,3.7
		C164,222.5,165.7,224.1,167.8,224.1z"/>
	<path class="st0" d="M192.7,225.3c2.7,0,4.8-2.2,4.8-4.8c0-2.7-2.2-4.8-4.8-4.8c-2.7,0-4.8,2.2-4.8,4.8S190.1,225.3,192.7,225.3z"
		/>
	<path class="st0" d="M217.7,226.2c3.2,0,5.8-2.6,5.8-5.8s-2.6-5.8-5.8-5.8s-5.8,2.6-5.8,5.8C211.9,223.6,214.5,226.2,217.7,226.2z"
		/>
	<path class="st0" d="M242.6,227.1c3.7,0,6.6-3,6.6-6.6c0-3.7-3-6.6-6.6-6.6s-6.6,3-6.6,6.6S239,227.1,242.6,227.1z"/>
	<path class="st0" d="M267.6,227.7c4,0,7.3-3.3,7.3-7.3s-3.3-7.3-7.3-7.3s-7.3,3.3-7.3,7.3C260.3,224.4,263.6,227.7,267.6,227.7z"/>
	<path class="st0" d="M292.5,227.9c4.1,0,7.5-3.3,7.5-7.5s-3.3-7.5-7.5-7.5c-4.1,0-7.5,3.3-7.5,7.5S288.4,227.9,292.5,227.9z"/>
	<path class="st0" d="M317.5,227.7c4,0,7.3-3.3,7.3-7.3s-3.3-7.3-7.3-7.3s-7.3,3.3-7.3,7.3S313.5,227.7,317.5,227.7z"/>
	<path class="st0" d="M342.4,227.1c3.7,0,6.7-3,6.7-6.7s-3-6.7-6.7-6.7s-6.7,3-6.7,6.7C335.7,224.1,338.7,227.1,342.4,227.1z"/>
	<circle class="st0" cx="367.4" cy="220.4" r="5.9"/>
	<path class="st0" d="M392.3,225.3c2.7,0,4.9-2.2,4.9-4.9s-2.2-4.9-4.9-4.9s-4.9,2.2-4.9,4.9S389.6,225.3,392.3,225.3z"/>
	<path class="st0" d="M417.3,224.2c2.1,0,3.8-1.7,3.8-3.8s-1.7-3.8-3.8-3.8c-2.1,0-3.8,1.7-3.8,3.8S415.2,224.2,417.3,224.2z"/>
	<path class="st0" d="M442.3,223.1c1.5,0,2.7-1.2,2.7-2.7s-1.2-2.7-2.7-2.7s-2.7,1.2-2.7,2.7C439.6,221.9,440.8,223.1,442.3,223.1z"
		/>
	<circle class="st0" cx="467.2" cy="220.4" r="1.5"/>
	<circle class="st0" cx="492.2" cy="220.4" r="0.3"/>
	<circle class="st0" cx="92.9" cy="245.4" r="0.6"/>
	<path class="st0" d="M117.9,247.2c1,0,1.8-0.8,1.8-1.8s-0.8-1.8-1.8-1.8s-1.8,0.8-1.8,1.8S116.9,247.2,117.9,247.2z"/>
	<circle class="st0" cx="142.8" cy="245.4" r="3.1"/>
	<path class="st0" d="M167.8,249.7c2.4,0,4.3-1.9,4.3-4.3s-1.9-4.3-4.3-4.3s-4.3,1.9-4.3,4.3S165.4,249.7,167.8,249.7z"/>
	<path class="st0" d="M192.7,250.9c3.1,0,5.5-2.5,5.5-5.5s-2.5-5.5-5.5-5.5s-5.5,2.5-5.5,5.5S189.7,250.9,192.7,250.9z"/>
	<path class="st0" d="M217.7,252c3.7,0,6.6-3,6.6-6.6c0-3.7-3-6.6-6.6-6.6s-6.6,3-6.6,6.6C211,249,214,252,217.7,252z"/>
	<circle class="st0" cx="242.6" cy="245.4" r="7.7"/>
	<path class="st0" d="M267.6,253.3c4.4,0,8-3.6,8-8s-3.6-8-8-8s-8,3.6-8,8C259.6,249.8,263.2,253.3,267.6,253.3z"/>
	<path class="st0" d="M292.5,252.9c4.2,0,7.5-3.4,7.5-7.5c0-4.2-3.4-7.5-7.5-7.5c-4.2,0-7.5,3.4-7.5,7.5S288.4,252.9,292.5,252.9z"
		/>
	<path class="st0" d="M317.5,253.3c4.4,0,8-3.6,8-8s-3.6-8-8-8s-8,3.6-8,8C309.5,249.8,313.1,253.3,317.5,253.3z"/>
	<path class="st0" d="M342.4,253.1c4.3,0,7.7-3.5,7.7-7.7c0-4.3-3.5-7.7-7.7-7.7c-4.3,0-7.7,3.5-7.7,7.7
		C334.7,249.6,338.2,253.1,342.4,253.1z"/>
	<path class="st0" d="M367.4,252.1c3.7,0,6.7-3,6.7-6.7s-3-6.7-6.7-6.7s-6.7,3-6.7,6.7C360.7,249.1,363.7,252.1,367.4,252.1z"/>
	<path class="st0" d="M392.3,251c3.1,0,5.6-2.5,5.6-5.6s-2.5-5.6-5.6-5.6s-5.6,2.5-5.6,5.6C386.7,248.5,389.3,251,392.3,251z"/>
	<path class="st0" d="M417.3,249.8c2.4,0,4.4-2,4.4-4.4s-2-4.4-4.4-4.4s-4.4,2-4.4,4.4S414.9,249.8,417.3,249.8z"/>
	<path class="st0" d="M442.3,248.5c1.8,0,3.2-1.4,3.2-3.2s-1.4-3.2-3.2-3.2s-3.2,1.4-3.2,3.2C439.1,247.1,440.5,248.5,442.3,248.5z"
		/>
	<path class="st0" d="M467.2,247.3c1.1,0,1.9-0.9,1.9-1.9s-0.9-1.9-1.9-1.9s-1.9,0.9-1.9,1.9S466.1,247.3,467.2,247.3z"/>
	<path class="st0" d="M492.2,246.1c0.4,0,0.7-0.3,0.7-0.7s-0.3-0.7-0.7-0.7s-0.7,0.3-0.7,0.7C491.5,245.7,491.8,246.1,492.2,246.1z"
		/>
	<path class="st0" d="M92.9,271.1c0.5,0,0.8-0.4,0.8-0.8c0-0.5-0.4-0.8-0.8-0.8s-0.8,0.4-0.8,0.8C92.1,270.8,92.5,271.1,92.9,271.1z
		"/>
	<path class="st0" d="M117.9,272.5c1.2,0,2.1-1,2.1-2.1c0-1.2-1-2.1-2.1-2.1c-1.2,0-2.1,1-2.1,2.1
		C115.7,271.5,116.7,272.5,117.9,272.5z"/>
	<path class="st0" d="M142.8,273.7c1.9,0,3.4-1.5,3.4-3.4s-1.5-3.4-3.4-3.4s-3.4,1.5-3.4,3.4C139.4,272.2,141,273.7,142.8,273.7z"/>
	<path class="st0" d="M167.8,275c2.6,0,4.7-2.1,4.7-4.7s-2.1-4.7-4.7-4.7s-4.7,2.1-4.7,4.7S165.2,275,167.8,275z"/>
	<path class="st0" d="M192.7,276.3c3.3,0,6-2.7,6-6s-2.7-6-6-6s-6,2.7-6,6C186.8,273.6,189.5,276.3,192.7,276.3z"/>
	<path class="st0" d="M217.7,277.6c4,0,7.3-3.3,7.3-7.3s-3.3-7.3-7.3-7.3s-7.3,3.3-7.3,7.3C210.4,274.3,213.7,277.6,217.7,277.6z"/>
	<path class="st0" d="M242.6,278.3c4.4,0,8-3.6,8-8s-3.6-8-8-8s-8,3.6-8,8C234.7,274.7,238.2,278.3,242.6,278.3z"/>
	<circle class="st0" cx="267.6" cy="270.3" r="5.7"/>
	<path class="st0" d="M292.5,274.4c2.3,0,4.1-1.8,4.1-4.1c0-2.3-1.8-4.1-4.1-4.1c-2.3,0-4.1,1.8-4.1,4.1
		C288.5,272.6,290.3,274.4,292.5,274.4z"/>
	<circle class="st0" cx="317.5" cy="270.3" r="5.5"/>
	<circle class="st0" cx="342.4" cy="270.3" r="7.9"/>
	<circle class="st0" cx="367.4" cy="270.3" r="7.3"/>
	<path class="st0" d="M392.3,276.4c3.4,0,6.1-2.7,6.1-6.1s-2.7-6.1-6.1-6.1s-6.1,2.7-6.1,6.1C386.3,273.7,389,276.4,392.3,276.4z"/>
	<circle class="st0" cx="417.3" cy="270.3" r="4.8"/>
	<path class="st0" d="M442.3,273.8c1.9,0,3.5-1.6,3.5-3.5s-1.6-3.5-3.5-3.5s-3.5,1.6-3.5,3.5C438.7,272.3,440.3,273.8,442.3,273.8z"
		/>
	<circle class="st0" cx="467.2" cy="270.3" r="2.2"/>
	<circle class="st0" cx="492.2" cy="270.3" r="0.9"/>
	<circle class="st0" cx="92.9" cy="295.3" r="0.9"/>
	<circle class="st0" cx="117.9" cy="295.3" r="2.2"/>
	<path class="st0" d="M142.8,298.8c1.9,0,3.5-1.6,3.5-3.5s-1.6-3.5-3.5-3.5s-3.5,1.6-3.5,3.5C139.3,297.2,140.9,298.8,142.8,298.8z"
		/>
	<path class="st0" d="M167.8,300.1c2.7,0,4.8-2.2,4.8-4.8c0-2.7-2.2-4.8-4.8-4.8s-4.8,2.2-4.8,4.8
		C162.9,297.9,165.1,300.1,167.8,300.1z"/>
	<path class="st0" d="M192.7,301.4c3.4,0,6.2-2.8,6.2-6.2s-2.8-6.2-6.2-6.2s-6.2,2.8-6.2,6.2S189.3,301.4,192.7,301.4z"/>
	<path class="st0" d="M217.7,302.7c4.1,0,7.5-3.3,7.5-7.5c0-4.1-3.3-7.5-7.5-7.5s-7.5,3.3-7.5,7.5
		C210.2,299.4,213.6,302.7,217.7,302.7z"/>
	<path class="st0" d="M242.6,302.8c4.2,0,7.5-3.4,7.5-7.5c0-4.2-3.4-7.5-7.5-7.5c-4.2,0-7.5,3.4-7.5,7.5S238.5,302.8,242.6,302.8z"
		/>
	<path class="st0" d="M267.6,299.3c2.3,0,4.1-1.8,4.1-4.1c0-2.3-1.8-4.1-4.1-4.1c-2.3,0-4.1,1.8-4.1,4.1S265.3,299.3,267.6,299.3z"
		/>
	<circle class="st0" cx="292.5" cy="295.3" r="1.5"/>
	<path class="st0" d="M317.5,299.1c2.1,0,3.8-1.7,3.8-3.8c0-2.1-1.7-3.8-3.8-3.8c-2.1,0-3.8,1.7-3.8,3.8S315.4,299.1,317.5,299.1z"
		/>
	<circle class="st0" cx="342.4" cy="295.3" r="7.3"/>
	<path class="st0" d="M367.4,302.8c4.2,0,7.5-3.4,7.5-7.5c0-4.2-3.4-7.5-7.5-7.5s-7.5,3.4-7.5,7.5S363.2,302.8,367.4,302.8z"/>
	<circle class="st0" cx="392.3" cy="295.3" r="6.2"/>
	<path class="st0" d="M417.3,300.2c2.7,0,4.9-2.2,4.9-4.9s-2.2-4.9-4.9-4.9s-4.9,2.2-4.9,4.9S414.6,300.2,417.3,300.2z"/>
	<circle class="st0" cx="442.3" cy="295.3" r="3.7"/>
	<path class="st0" d="M467.2,297.6c1.3,0,2.4-1.1,2.4-2.4s-1.1-2.4-2.4-2.4s-2.4,1.1-2.4,2.4C464.9,296.6,465.9,297.6,467.2,297.6z"
		/>
	<path class="st0" d="M492.2,296.3c0.6,0,1-0.5,1-1c0-0.6-0.5-1-1-1s-1,0.5-1,1C491.1,295.8,491.6,296.3,492.2,296.3z"/>
	<path class="st0" d="M517.1,295.3C517.1,295.3,517.2,295.3,517.1,295.3c0.1-0.1,0-0.1,0-0.1C517.1,295.2,517,295.2,517.1,295.3
		C517,295.3,517.1,295.3,517.1,295.3z"/>
	<path class="st0" d="M92.9,321c0.5,0,0.8-0.4,0.8-0.8c0-0.5-0.4-0.8-0.8-0.8s-0.8,0.4-0.8,0.8C92.1,320.7,92.5,321,92.9,321z"/>
	<path class="st0" d="M117.9,322.4c1.2,0,2.1-1,2.1-2.1c0-1.2-1-2.1-2.1-2.1c-1.2,0-2.1,1-2.1,2.1
		C115.7,321.4,116.7,322.4,117.9,322.4z"/>
	<circle class="st0" cx="142.8" cy="320.2" r="3.5"/>
	<path class="st0" d="M167.8,324.9c2.6,0,4.7-2.1,4.7-4.7s-2.1-4.7-4.7-4.7s-4.7,2.1-4.7,4.7S165.2,324.9,167.8,324.9z"/>
	<circle class="st0" cx="192.7" cy="320.2" r="6"/>
	<path class="st0" d="M217.7,327.5c4,0,7.3-3.3,7.3-7.3s-3.3-7.3-7.3-7.3s-7.3,3.3-7.3,7.3S213.7,327.5,217.7,327.5z"/>
	<path class="st0" d="M242.6,328.2c4.4,0,8-3.6,8-8s-3.6-8-8-8s-8,3.6-8,8S238.2,328.2,242.6,328.2z"/>
	<circle class="st0" cx="267.6" cy="320.2" r="5.5"/>
	<path class="st0" d="M292.5,324c2.1,0,3.8-1.7,3.8-3.8c0-2.1-1.7-3.8-3.8-3.8c-2.1,0-3.8,1.7-3.8,3.8S290.4,324,292.5,324z"/>
	<path class="st0" d="M317.5,325.5c2.9,0,5.3-2.4,5.3-5.3s-2.4-5.3-5.3-5.3s-5.3,2.4-5.3,5.3S314.6,325.5,317.5,325.5z"/>
	<path class="st0" d="M342.4,328c4.3,0,7.8-3.5,7.8-7.8s-3.5-7.8-7.8-7.8s-7.8,3.5-7.8,7.8S338.1,328,342.4,328z"/>
	<path class="st0" d="M367.4,327.6c4.1,0,7.4-3.3,7.4-7.4s-3.3-7.4-7.4-7.4s-7.4,3.3-7.4,7.4S363.3,327.6,367.4,327.6z"/>
	<path class="st0" d="M392.3,326.3c3.4,0,6.1-2.7,6.1-6.1s-2.7-6.1-6.1-6.1s-6.1,2.7-6.1,6.1C386.3,323.6,389,326.3,392.3,326.3z"/>
	<path class="st0" d="M417.3,325.1c2.7,0,4.8-2.2,4.8-4.8c0-2.7-2.2-4.8-4.8-4.8c-2.7,0-4.8,2.2-4.8,4.8S414.6,325.1,417.3,325.1z"
		/>
	<path class="st0" d="M442.3,323.7c1.9,0,3.5-1.6,3.5-3.5s-1.6-3.5-3.5-3.5s-3.5,1.6-3.5,3.5C438.7,322.2,440.3,323.7,442.3,323.7z"
		/>
	<circle class="st0" cx="467.2" cy="320.2" r="2.2"/>
	<path class="st0" d="M492.2,321.2c0.5,0,1-0.4,1-1c0-0.5-0.4-1-1-1s-1,0.4-1,1C491.2,320.8,491.6,321.2,492.2,321.2z"/>
	<path class="st0" d="M92.9,345.8c0.3,0,0.6-0.3,0.6-0.6c0-0.3-0.3-0.6-0.6-0.6s-0.6,0.3-0.6,0.6S92.6,345.8,92.9,345.8z"/>
	<path class="st0" d="M117.9,347c1,0,1.9-0.8,1.9-1.9s-0.8-1.9-1.9-1.9c-1,0-1.9,0.8-1.9,1.9S116.9,347,117.9,347z"/>
	<circle class="st0" cx="142.8" cy="345.2" r="3.1"/>
	<path class="st0" d="M167.8,349.5c2.4,0,4.4-2,4.4-4.4s-2-4.4-4.4-4.4s-4.4,2-4.4,4.4S165.4,349.5,167.8,349.5z"/>
	<path class="st0" d="M192.7,350.7c3.1,0,5.5-2.5,5.5-5.5c0-3.1-2.5-5.5-5.5-5.5s-5.5,2.5-5.5,5.5S189.7,350.7,192.7,350.7z"/>
	<path class="st0" d="M217.7,351.9c3.7,0,6.7-3,6.7-6.7s-3-6.7-6.7-6.7s-6.7,3-6.7,6.7S214,351.9,217.7,351.9z"/>
	<path class="st0" d="M242.6,352.9c4.3,0,7.7-3.5,7.7-7.7c0-4.3-3.5-7.7-7.7-7.7c-4.3,0-7.7,3.5-7.7,7.7
		C234.9,349.4,238.4,352.9,242.6,352.9z"/>
	<circle class="st0" cx="267.6" cy="345.2" r="7.9"/>
	<circle class="st0" cx="292.5" cy="345.2" r="7.3"/>
	<path class="st0" d="M317.5,353c4.3,0,7.8-3.5,7.8-7.8s-3.5-7.8-7.8-7.8s-7.8,3.5-7.8,7.8S313.2,353,317.5,353z"/>
	<path class="st0" d="M342.4,353c4.3,0,7.8-3.5,7.8-7.8s-3.5-7.8-7.8-7.8s-7.8,3.5-7.8,7.8S338.1,353,342.4,353z"/>
	<circle class="st0" cx="367.4" cy="345.2" r="6.8"/>
	<circle class="st0" cx="392.3" cy="345.2" r="5.7"/>
	<path class="st0" d="M417.3,349.6c2.4,0,4.4-2,4.4-4.4s-2-4.4-4.4-4.4s-4.4,2-4.4,4.4S414.9,349.6,417.3,349.6z"/>
	<path class="st0" d="M442.3,348.4c1.8,0,3.3-1.5,3.3-3.3s-1.5-3.3-3.3-3.3s-3.3,1.5-3.3,3.3C439,347,440.5,348.4,442.3,348.4z"/>
	<path class="st0" d="M467.2,347.1c1.1,0,1.9-0.9,1.9-1.9s-0.9-1.9-1.9-1.9s-1.9,0.9-1.9,1.9S466.1,347.1,467.2,347.1z"/>
	<path class="st0" d="M492.2,345.9c0.4,0,0.7-0.3,0.7-0.7s-0.3-0.7-0.7-0.7s-0.7,0.3-0.7,0.7S491.8,345.9,492.2,345.9z"/>
	<path class="st0" d="M92.9,370.4c0.2,0,0.3-0.1,0.3-0.3c0-0.2-0.1-0.3-0.3-0.3c-0.2,0-0.3,0.1-0.3,0.3
		C92.7,370.3,92.8,370.4,92.9,370.4z"/>
	<circle class="st0" cx="117.9" cy="370.1" r="1.5"/>
	<path class="st0" d="M142.8,372.8c1.5,0,2.6-1.2,2.6-2.6c0-1.5-1.2-2.6-2.6-2.6c-1.5,0-2.6,1.2-2.6,2.6
		C140.2,371.6,141.4,372.8,142.8,372.8z"/>
	<path class="st0" d="M167.8,373.9c2.1,0,3.8-1.7,3.8-3.8c0-2.1-1.7-3.8-3.8-3.8s-3.8,1.7-3.8,3.8
		C164,372.2,165.7,373.9,167.8,373.9z"/>
	<path class="st0" d="M192.7,375c2.7,0,4.9-2.2,4.9-4.9s-2.2-4.9-4.9-4.9s-4.9,2.2-4.9,4.9S190,375,192.7,375z"/>
	<circle class="st0" cx="217.7" cy="370.1" r="5.9"/>
	<path class="st0" d="M242.6,376.8c3.7,0,6.7-3,6.7-6.7s-3-6.7-6.7-6.7s-6.7,3-6.7,6.7C235.9,373.8,238.9,376.8,242.6,376.8z"/>
	<circle class="st0" cx="267.6" cy="370.1" r="7.3"/>
	<path class="st0" d="M292.5,377.7c4.2,0,7.5-3.4,7.5-7.5c0-4.2-3.4-7.5-7.5-7.5c-4.2,0-7.5,3.4-7.5,7.5
		C285,374.3,288.4,377.7,292.5,377.7z"/>
	<path class="st0" d="M317.5,377.5c4.1,0,7.4-3.3,7.4-7.4s-3.3-7.4-7.4-7.4s-7.4,3.3-7.4,7.4S313.4,377.5,317.5,377.5z"/>
	<circle class="st0" cx="342.4" cy="370.1" r="6.8"/>
	<path class="st0" d="M367.4,376.1c3.3,0,6-2.7,6-6s-2.7-6-6-6s-6,2.7-6,6S364.1,376.1,367.4,376.1z"/>
	<path class="st0" d="M392.3,375.1c2.8,0,5-2.2,5-5s-2.2-5-5-5s-5,2.2-5,5C387.4,372.9,389.6,375.1,392.3,375.1z"/>
	<path class="st0" d="M417.3,374c2.1,0,3.9-1.7,3.9-3.9c0-2.1-1.7-3.9-3.9-3.9s-3.9,1.7-3.9,3.9S415.2,374,417.3,374z"/>
	<path class="st0" d="M442.3,372.8c1.5,0,2.7-1.2,2.7-2.7s-1.2-2.7-2.7-2.7s-2.7,1.2-2.7,2.7C439.6,371.6,440.8,372.8,442.3,372.8z"
		/>
	<path class="st0" d="M467.2,371.6c0.8,0,1.5-0.7,1.5-1.5s-0.7-1.5-1.5-1.5s-1.5,0.7-1.5,1.5C465.7,371,466.4,371.6,467.2,371.6z"/>
	<circle class="st0" cx="492.2" cy="370.1" r="0.3"/>
	<path class="st0" d="M92.9,395.1C93,395.1,93,395.1,92.9,395.1c0.1-0.1,0-0.1,0-0.1S92.9,395,92.9,395.1L92.9,395.1z"/>
	<path class="st0" d="M117.9,395.9c0.5,0,0.8-0.4,0.8-0.8c0-0.5-0.4-0.8-0.8-0.8s-0.8,0.4-0.8,0.8S117.4,395.9,117.9,395.9z"/>
	<path class="st0" d="M142.8,397c1.1,0,1.9-0.9,1.9-1.9s-0.9-1.9-1.9-1.9s-1.9,0.9-1.9,1.9S141.8,397,142.8,397z"/>
	<path class="st0" d="M167.8,398.1c1.7,0,3-1.4,3-3c0-1.7-1.4-3-3-3s-3,1.4-3,3C164.7,396.8,166.1,398.1,167.8,398.1z"/>
	<circle class="st0" cx="192.7" cy="395.1" r="4"/>
	<path class="st0" d="M217.7,400c2.7,0,4.9-2.2,4.9-4.9s-2.2-4.9-4.9-4.9s-4.9,2.2-4.9,4.9S215,400,217.7,400z"/>
	<path class="st0" d="M242.6,400.7c3.1,0,5.6-2.5,5.6-5.6s-2.5-5.6-5.6-5.6s-5.6,2.5-5.6,5.6S239.5,400.7,242.6,400.7z"/>
	<path class="st0" d="M267.6,401.2c3.4,0,6.1-2.7,6.1-6.1s-2.7-6.1-6.1-6.1s-6.1,2.7-6.1,6.1C261.5,398.4,264.2,401.2,267.6,401.2z"
		/>
	<circle class="st0" cx="292.5" cy="395.1" r="6.2"/>
	<path class="st0" d="M317.5,401.2c3.4,0,6.1-2.7,6.1-6.1s-2.7-6.1-6.1-6.1s-6.1,2.7-6.1,6.1C311.4,398.4,314.1,401.2,317.5,401.2z"
		/>
	<circle class="st0" cx="342.4" cy="395.1" r="5.7"/>
	<path class="st0" d="M367.4,400.1c2.8,0,5-2.2,5-5s-2.2-5-5-5s-5,2.2-5,5C362.4,397.8,364.6,400.1,367.4,400.1z"/>
	<path class="st0" d="M392.3,399.2c2.3,0,4.1-1.8,4.1-4.1c0-2.3-1.8-4.1-4.1-4.1c-2.3,0-4.1,1.8-4.1,4.1
		C388.3,397.3,390.1,399.2,392.3,399.2z"/>
	<circle class="st0" cx="417.3" cy="395.1" r="3.1"/>
	<path class="st0" d="M442.3,397.1c1.1,0,2.1-0.9,2.1-2.1c0-1.1-0.9-2.1-2.1-2.1c-1.1,0-2.1,0.9-2.1,2.1
		C440.2,396.2,441.1,397.1,442.3,397.1z"/>
	<path class="st0" d="M467.2,396c0.5,0,1-0.4,1-1c0-0.5-0.4-1-1-1c-0.5,0-1,0.4-1,1S466.7,396,467.2,396z"/>
	<path class="st0" d="M492.2,395.1L492.2,395.1c0.1-0.1,0-0.1,0-0.1C492.1,395,492.1,395,492.2,395.1
		C492.1,395.1,492.1,395.1,492.2,395.1z"/>
	<path class="st0" d="M117.9,420.3c0.2,0,0.3-0.1,0.3-0.3c0-0.2-0.1-0.3-0.3-0.3c-0.2,0-0.3,0.1-0.3,0.3
		C117.6,420.2,117.7,420.3,117.9,420.3z"/>
	<path class="st0" d="M142.8,421.2c0.6,0,1.2-0.5,1.2-1.2c0-0.6-0.5-1.2-1.2-1.2c-0.6,0-1.2,0.5-1.2,1.2
		C141.7,420.7,142.2,421.2,142.8,421.2z"/>
	<path class="st0" d="M167.8,422.2c1.2,0,2.1-1,2.1-2.1c0-1.2-1-2.1-2.1-2.1c-1.2,0-2.1,1-2.1,2.1
		C165.6,421.2,166.6,422.2,167.8,422.2z"/>
	<path class="st0" d="M192.7,423.1c1.7,0,3-1.4,3-3c0-1.7-1.4-3-3-3c-1.7,0-3,1.4-3,3S191.1,423.1,192.7,423.1z"/>
	<path class="st0" d="M217.7,423.8c2.1,0,3.8-1.7,3.8-3.8c0-2.1-1.7-3.8-3.8-3.8s-3.8,1.7-3.8,3.8
		C213.9,422.1,215.6,423.8,217.7,423.8z"/>
	<path class="st0" d="M242.6,424.5c2.4,0,4.4-2,4.4-4.4s-2-4.4-4.4-4.4s-4.4,2-4.4,4.4C238.2,422.5,240.2,424.5,242.6,424.5z"/>
	<circle class="st0" cx="267.6" cy="420" r="4.8"/>
	<path class="st0" d="M292.5,424.9c2.7,0,4.9-2.2,4.9-4.9s-2.2-4.9-4.9-4.9s-4.9,2.2-4.9,4.9S289.8,424.9,292.5,424.9z"/>
	<path class="st0" d="M317.5,424.9c2.7,0,4.8-2.2,4.8-4.8c0-2.7-2.2-4.8-4.8-4.8c-2.7,0-4.8,2.2-4.8,4.8
		C312.7,422.7,314.8,424.9,317.5,424.9z"/>
	<path class="st0" d="M342.4,424.5c2.4,0,4.4-2,4.4-4.4s-2-4.4-4.4-4.4s-4.4,2-4.4,4.4S340,424.5,342.4,424.5z"/>
	<path class="st0" d="M367.4,423.9c2.1,0,3.9-1.7,3.9-3.9c0-2.1-1.7-3.9-3.9-3.9s-3.9,1.7-3.9,3.9
		C363.5,422.2,365.3,423.9,367.4,423.9z"/>
	<circle class="st0" cx="392.3" cy="420" r="3.1"/>
	<path class="st0" d="M417.3,422.3c1.3,0,2.3-1,2.3-2.3s-1-2.3-2.3-2.3s-2.3,1-2.3,2.3S416,422.3,417.3,422.3z"/>
	<path class="st0" d="M442.3,421.3c0.7,0,1.3-0.6,1.3-1.3c0-0.7-0.6-1.3-1.3-1.3c-0.7,0-1.3,0.6-1.3,1.3
		C440.9,420.8,441.5,421.3,442.3,421.3z"/>
	<path class="st0" d="M467.2,420.3c0.2,0,0.3-0.1,0.3-0.3c0-0.2-0.1-0.3-0.3-0.3c-0.2,0-0.3,0.1-0.3,0.3
		C466.9,420.2,467.1,420.3,467.2,420.3z"/>
	<circle class="st0" cx="142.8" cy="445" r="0.3"/>
	<path class="st0" d="M167.8,446.2c0.7,0,1.2-0.6,1.2-1.2s-0.6-1.2-1.2-1.2s-1.2,0.6-1.2,1.2S167.1,446.2,167.8,446.2z"/>
	<circle class="st0" cx="192.7" cy="445" r="2"/>
	<path class="st0" d="M217.7,447.7c1.5,0,2.7-1.2,2.7-2.7s-1.2-2.7-2.7-2.7s-2.7,1.2-2.7,2.7S216.2,447.7,217.7,447.7z"/>
	<path class="st0" d="M242.6,448.2c1.8,0,3.2-1.4,3.2-3.2c0-1.8-1.4-3.2-3.2-3.2s-3.2,1.4-3.2,3.2
		C239.5,446.7,240.9,448.2,242.6,448.2z"/>
	<path class="st0" d="M267.6,448.5c1.9,0,3.5-1.6,3.5-3.5s-1.6-3.5-3.5-3.5s-3.5,1.6-3.5,3.5S265.6,448.5,267.6,448.5z"/>
	<circle class="st0" cx="292.5" cy="445" r="3.7"/>
	<path class="st0" d="M317.5,448.5c1.9,0,3.5-1.6,3.5-3.5s-1.6-3.5-3.5-3.5s-3.5,1.6-3.5,3.5S315.5,448.5,317.5,448.5z"/>
	<path class="st0" d="M342.4,448.2c1.8,0,3.3-1.5,3.3-3.3s-1.5-3.3-3.3-3.3s-3.3,1.5-3.3,3.3C339.2,446.8,340.7,448.2,342.4,448.2z"
		/>
	<path class="st0" d="M367.4,447.7c1.5,0,2.7-1.2,2.7-2.7s-1.2-2.7-2.7-2.7s-2.7,1.2-2.7,2.7C364.7,446.5,365.9,447.7,367.4,447.7z"
		/>
	<path class="st0" d="M392.3,447.1c1.1,0,2.1-0.9,2.1-2.1c0-1.1-0.9-2.1-2.1-2.1c-1.1,0-2.1,0.9-2.1,2.1
		C390.3,446.1,391.2,447.1,392.3,447.1z"/>
	<path class="st0" d="M417.3,446.3c0.7,0,1.3-0.6,1.3-1.3c0-0.7-0.6-1.3-1.3-1.3c-0.7,0-1.3,0.6-1.3,1.3
		C416,445.7,416.6,446.3,417.3,446.3z"/>
	<path class="st0" d="M442.3,445.4c0.2,0,0.4-0.2,0.4-0.4c0-0.2-0.2-0.4-0.4-0.4c-0.2,0-0.4,0.2-0.4,0.4
		C441.8,445.2,442,445.4,442.3,445.4z"/>
	<path class="st0" d="M167.8,470.2c0.2,0,0.3-0.1,0.3-0.3c0-0.2-0.1-0.3-0.3-0.3s-0.3,0.1-0.3,0.3S167.6,470.2,167.8,470.2z"/>
	<circle class="st0" cx="192.7" cy="469.9" r="0.9"/>
	<circle class="st0" cx="217.7" cy="469.9" r="1.5"/>
	<path class="st0" d="M242.6,471.9c1.1,0,1.9-0.9,1.9-1.9s-0.9-1.9-1.9-1.9s-1.9,0.9-1.9,1.9S241.6,471.9,242.6,471.9z"/>
	<circle class="st0" cx="267.6" cy="469.9" r="2.2"/>
	<path class="st0" d="M292.5,472.3c1.3,0,2.4-1.1,2.4-2.4s-1.1-2.4-2.4-2.4s-2.4,1.1-2.4,2.4C290.2,471.2,291.2,472.3,292.5,472.3z"
		/>
	<circle class="st0" cx="317.5" cy="469.9" r="2.2"/>
	<path class="st0" d="M342.4,471.9c1.1,0,1.9-0.9,1.9-1.9s-0.9-1.9-1.9-1.9s-1.9,0.9-1.9,1.9S341.4,471.9,342.4,471.9z"/>
	<path class="st0" d="M367.4,471.4c0.8,0,1.5-0.7,1.5-1.5s-0.7-1.5-1.5-1.5s-1.5,0.7-1.5,1.5C365.9,470.8,366.6,471.4,367.4,471.4z"
		/>
	<path class="st0" d="M392.3,470.9c0.5,0,1-0.4,1-1c0-0.5-0.4-1-1-1s-1,0.4-1,1C391.4,470.5,391.8,470.9,392.3,470.9z"/>
	<path class="st0" d="M417.3,470.2c0.2,0,0.3-0.1,0.3-0.3c0-0.2-0.1-0.3-0.3-0.3c-0.2,0-0.3,0.1-0.3,0.3S417.1,470.2,417.3,470.2z"
		/>
	<path class="st0" d="M192.7,494.9C192.8,494.9,192.8,494.9,192.7,494.9c0.1-0.1,0-0.1,0-0.1S192.7,494.8,192.7,494.9L192.7,494.9z"
		/>
	<circle class="st0" cx="217.7" cy="494.9" r="0.3"/>
	<path class="st0" d="M242.6,495.6c0.4,0,0.7-0.3,0.7-0.7s-0.3-0.7-0.7-0.7s-0.7,0.3-0.7,0.7S242.3,495.6,242.6,495.6z"/>
	<circle class="st0" cx="267.6" cy="494.9" r="0.9"/>
	<path class="st0" d="M292.5,495.9c0.6,0,1-0.5,1-1c0-0.6-0.5-1-1-1s-1,0.5-1,1C291.5,495.5,292,495.9,292.5,495.9z"/>
	<path class="st0" d="M317.5,495.8c0.5,0,1-0.4,1-1c0-0.5-0.4-1-1-1c-0.5,0-1,0.4-1,1S317,495.8,317.5,495.8z"/>
	<path class="st0" d="M342.4,495.6c0.4,0,0.7-0.3,0.7-0.7s-0.3-0.7-0.7-0.7s-0.7,0.3-0.7,0.7S342.1,495.6,342.4,495.6z"/>
	<circle class="st0" cx="367.4" cy="494.9" r="0.3"/>
	<path class="st0" d="M392.3,494.9C392.4,494.9,392.4,494.9,392.3,494.9c0.1-0.1,0-0.1,0-0.1S392.3,494.8,392.3,494.9L392.3,494.9z"
		/>
	<path class="st0" d="M292.5,519.9C292.6,519.9,292.6,519.9,292.5,519.9C292.6,519.8,292.5,519.8,292.5,519.9
		C292.5,519.8,292.5,519.8,292.5,519.9L292.5,519.9z"/>
</g>
</svg>
