<?xml version="1.0" encoding="utf-8"?>
<!-- Generator: Adobe Illustrator 24.1.0, SVG Export Plug-In . SVG Version: 6.00 Build 0)  -->
<svg version="1.1" id="Layer_1" xmlns="http://www.w3.org/2000/svg" xmlns:xlink="http://www.w3.org/1999/xlink" x="0px" y="0px"
	 viewBox="0 0 258.2 248.1" style="enable-background:new 0 0 258.2 248.1;" xml:space="preserve">
<style type="text/css">
	.st0{fill:#FFCF24;}
</style>
<g>
	<path class="st0" d="M192.1,131.6c3.7,0,6.7-3,6.7-6.7s-3-6.7-6.7-6.7s-6.7,3-6.7,6.7C185.3,128.5,188.3,131.6,192.1,131.6z"/>
	<path class="st0" d="M186.6,157.4c3.7,0,6.7-3,6.7-6.7s-3-6.7-6.7-6.7s-6.7,3-6.7,6.7C179.8,154.4,182.8,157.4,186.6,157.4z"/>
	<circle class="st0" cx="171.1" cy="172" r="6.7"/>
	<path class="st0" d="M148.2,191.9c3.7,0,6.7-3,6.7-6.7s-3-6.7-6.7-6.7s-6.7,3-6.7,6.7S144.5,191.9,148.2,191.9z"/>
	<circle class="st0" cx="122" cy="187.9" r="6.8"/>
	<path class="st0" d="M96.9,186.6c3.8,0,6.9-3.1,6.9-6.9c0-3.8-3.1-6.9-6.9-6.9s-6.9,3.1-6.9,6.9C90,183.6,93.1,186.6,96.9,186.6z"
		/>
	<path class="st0" d="M77.3,169c3.8,0,6.9-3.1,6.9-6.9s-3.1-6.9-6.9-6.9s-6.9,3.1-6.9,6.9S73.4,169,77.3,169z"/>
	<path class="st0" d="M66.5,145.1c3.9,0,7-3.2,7-7c0-3.9-3.2-7-7-7c-3.9,0-7,3.2-7,7C59.5,141.9,62.6,145.1,66.5,145.1z"/>
	<path class="st0" d="M66.5,118.7c3.9,0,7.1-3.2,7.1-7.1s-3.2-7.1-7.1-7.1s-7.1,3.2-7.1,7.1S62.6,118.7,66.5,118.7z"/>
	<path class="st0" d="M77.3,94.6c3.9,0,7.1-3.2,7.1-7.1s-3.2-7.1-7.1-7.1s-7.1,3.2-7.1,7.1C70.2,91.4,73.3,94.6,77.3,94.6z"/>
	<path class="st0" d="M96.9,77c3.9,0,7.1-3.2,7.1-7.1s-3.2-7.1-7.1-7.1s-7.1,3.2-7.1,7.1S92.9,77,96.9,77z"/>
	<path class="st0" d="M122,68.8c3.9,0,7.1-3.2,7.1-7.1s-3.2-7.1-7.1-7.1s-7.1,3.2-7.1,7.1C114.9,65.6,118,68.8,122,68.8z"/>
	<circle class="st0" cx="148.2" cy="64.5" r="7"/>
	<path class="st0" d="M171.1,84.6c3.8,0,6.9-3.1,6.9-6.9s-3.1-6.9-6.9-6.9c-3.8,0-6.9,3.1-6.9,6.9S167.2,84.6,171.1,84.6z"/>
	<circle class="st0" cx="186.6" cy="99" r="6.9"/>
	<circle class="st0" cx="234.4" cy="124.8" r="7.7"/>
	<path class="st0" d="M231,158.9c4.3,0,7.8-3.5,7.8-7.8s-3.5-7.8-7.8-7.8s-7.8,3.5-7.8,7.8S226.7,158.9,231,158.9z"/>
	<circle class="st0" cx="221.3" cy="175.8" r="7.8"/>
	<path class="st0" d="M205.7,205c4.3,0,7.8-3.5,7.8-7.8s-3.5-7.8-7.8-7.8s-7.8,3.5-7.8,7.8S201.4,205,205.7,205z"/>
	<path class="st0" d="M185.3,221.9c4.3,0,7.8-3.5,7.8-7.8s-3.5-7.8-7.8-7.8s-7.8,3.5-7.8,7.8S181,221.9,185.3,221.9z"/>
	<circle class="st0" cx="161.3" cy="225.4" r="7.8"/>
	<circle class="st0" cx="135.2" cy="230.4" r="7.7"/>
	<path class="st0" d="M108.8,236.5c4.3,0,7.7-3.5,7.7-7.7c0-4.3-3.5-7.7-7.7-7.7c-4.3,0-7.7,3.5-7.7,7.7
		C101,233,104.5,236.5,108.8,236.5z"/>
	<circle class="st0" cx="83.6" cy="220.5" r="7.7"/>
	<path class="st0" d="M61.2,214c4.2,0,7.7-3.4,7.7-7.7c0-4.2-3.4-7.7-7.7-7.7c-4.2,0-7.7,3.4-7.7,7.7S56.9,214,61.2,214z"/>
	<path class="st0" d="M43,194.7c4.2,0,7.7-3.4,7.7-7.7c0-4.2-3.4-7.7-7.7-7.7c-4.2,0-7.7,3.4-7.7,7.7
		C35.3,191.2,38.8,194.7,43,194.7z"/>
	<circle class="st0" cx="30.3" cy="163.8" r="7.6"/>
	<path class="st0" d="M23.7,145.7c4.2,0,7.6-3.4,7.6-7.6c0-4.2-3.4-7.6-7.6-7.6s-7.6,3.4-7.6,7.6C16,142.3,19.4,145.7,23.7,145.7z"
		/>
	<path class="st0" d="M23.7,119.1c4.2,0,7.6-3.4,7.6-7.6s-3.4-7.6-7.6-7.6s-7.6,3.4-7.6,7.6S19.5,119.1,23.7,119.1z"/>
	<path class="st0" d="M30.3,93.5c4.2,0,7.6-3.4,7.6-7.6s-3.4-7.6-7.6-7.6s-7.6,3.4-7.6,7.6C22.7,90.1,26.1,93.5,30.3,93.5z"/>
	<path class="st0" d="M43,70.2c4.2,0,7.6-3.4,7.6-7.6S47.2,55,43,55s-7.6,3.4-7.6,7.6C35.5,66.8,38.8,70.2,43,70.2z"/>
	<path class="st0" d="M61.2,50.9c4.2,0,7.6-3.4,7.6-7.6s-3.4-7.6-7.6-7.6s-7.6,3.4-7.6,7.6C53.6,47.5,57,50.9,61.2,50.9z"/>
	<circle class="st0" cx="83.6" cy="29.1" r="7.6"/>
	<path class="st0" d="M108.8,28.5c4.2,0,7.6-3.4,7.6-7.6s-3.4-7.6-7.6-7.6s-7.6,3.4-7.6,7.6C101.2,25.1,104.6,28.5,108.8,28.5z"/>
	<circle class="st0" cx="135.2" cy="19.3" r="7.6"/>
	<circle class="st0" cx="161.3" cy="24.2" r="7.6"/>
	<path class="st0" d="M185.3,43.1c4.2,0,7.6-3.4,7.6-7.6s-3.4-7.6-7.6-7.6c-4.2,0-7.6,3.4-7.6,7.6C177.6,39.7,181.1,43.1,185.3,43.1
		z"/>
	<path class="st0" d="M205.7,60.1c4.2,0,7.7-3.4,7.7-7.7c0-4.2-3.4-7.7-7.7-7.7c-4.2,0-7.7,3.4-7.7,7.7S201.5,60.1,205.7,60.1z"/>
	<path class="st0" d="M221.3,81.5c4.2,0,7.7-3.4,7.7-7.7c0-4.2-3.4-7.7-7.7-7.7c-4.2,0-7.7,3.4-7.7,7.7S217,81.5,221.3,81.5z"/>
	<circle class="st0" cx="231" cy="98.5" r="7.7"/>
</g>
</svg>
