<?xml version="1.0" encoding="utf-8"?>
<!-- Generator: Adobe Illustrator 24.1.0, SVG Export Plug-In . SVG Version: 6.00 Build 0)  -->
<svg version="1.1" id="Layer_1" xmlns="http://www.w3.org/2000/svg" xmlns:xlink="http://www.w3.org/1999/xlink" x="0px" y="0px"
	 viewBox="0 0 258.2 248.1" style="enable-background:new 0 0 258.2 248.1;" xml:space="preserve">
<style type="text/css">
	.st0{fill:#FFFFFF;}
</style>
<path class="st0" d="M162.6,129c2.2,0,4-1.8,4-4c0-2.2-1.8-4-4-4c-2.2,0-4,1.8-4,4C158.5,127.2,160.3,129,162.6,129z"/>
<path class="st0" d="M159.3,144.5c2.2,0,4-1.8,4-4c0-2.2-1.8-4-4-4s-4,1.8-4,4C155.2,142.7,157,144.5,159.3,144.5z"/>
<circle class="st0" cx="150" cy="153.2" r="4"/>
<path class="st0" d="M136.3,165.2c2.2,0,4-1.8,4-4c0-2.2-1.8-4-4-4s-4,1.8-4,4C132.2,163.4,134,165.2,136.3,165.2z"/>
<circle class="st0" cx="120.5" cy="162.8" r="4.1"/>
<path class="st0" d="M105.5,162c2.3,0,4.1-1.8,4.1-4.1c0-2.3-1.8-4.1-4.1-4.1c-2.3,0-4.1,1.8-4.1,4.1
	C101.4,160.2,103.2,162,105.5,162z"/>
<path class="st0" d="M93.8,151.5c2.3,0,4.1-1.9,4.1-4.1s-1.9-4.1-4.1-4.1c-2.3,0-4.1,1.9-4.1,4.1S91.5,151.5,93.8,151.5z"/>
<path class="st0" d="M87.3,137.1c2.3,0,4.2-1.9,4.2-4.2s-1.9-4.2-4.2-4.2c-2.3,0-4.2,1.9-4.2,4.2S85,137.1,87.3,137.1z"/>
<path class="st0" d="M87.3,121.3c2.3,0,4.3-1.9,4.3-4.3c0-2.3-1.9-4.3-4.3-4.3c-2.3,0-4.3,1.9-4.3,4.3
	C83.1,119.4,85,121.3,87.3,121.3z"/>
<path class="st0" d="M93.8,106.9c2.3,0,4.3-1.9,4.3-4.3c0-2.3-1.9-4.3-4.3-4.3c-2.3,0-4.3,1.9-4.3,4.3
	C89.5,105,91.4,106.9,93.8,106.9z"/>
<path class="st0" d="M105.5,96.3c2.3,0,4.3-1.9,4.3-4.3c0-2.3-1.9-4.3-4.3-4.3c-2.3,0-4.3,1.9-4.3,4.3
	C101.3,94.4,103.2,96.3,105.5,96.3z"/>
<path class="st0" d="M120.5,91.4c2.3,0,4.3-1.9,4.3-4.3c0-2.3-1.9-4.3-4.3-4.3c-2.3,0-4.3,1.9-4.3,4.3
	C116.3,89.5,118.2,91.4,120.5,91.4z"/>
<circle class="st0" cx="136.3" cy="88.8" r="4.2"/>
<path class="st0" d="M150,100.9c2.3,0,4.1-1.9,4.1-4.1c0-2.3-1.9-4.1-4.1-4.1c-2.3,0-4.1,1.9-4.1,4.1
	C145.8,99,147.7,100.9,150,100.9z"/>
<circle class="st0" cx="159.3" cy="109.5" r="4.1"/>
<circle class="st0" cx="175.2" cy="125" r="5.6"/>
<path class="st0" d="M172.8,146.2c3.1,0,5.6-2.5,5.6-5.6s-2.5-5.6-5.6-5.6c-3.1,0-5.6,2.5-5.6,5.6S169.7,146.2,172.8,146.2z"/>
<path class="st0" d="M165.6,160.3c3.1,0,5.6-2.5,5.6-5.6c0-3.1-2.5-5.6-5.6-5.6s-5.6,2.5-5.6,5.6C160,157.9,162.5,160.3,165.6,160.3
	z"/>
<path class="st0" d="M154.3,171.6c3.1,0,5.6-2.5,5.6-5.6c0-3.1-2.5-5.6-5.6-5.6c-3.1,0-5.6,2.5-5.6,5.6
	C148.8,169.1,151.3,171.6,154.3,171.6z"/>
<path class="st0" d="M140.2,178.8c3.1,0,5.6-2.5,5.6-5.6c0-3.1-2.5-5.6-5.6-5.6s-5.6,2.5-5.6,5.6
	C134.6,176.3,137.1,178.8,140.2,178.8z"/>
<circle class="st0" cx="124.5" cy="175.7" r="5.6"/>
<path class="st0" d="M108.9,178.8c3.1,0,5.6-2.5,5.6-5.6c0-3.1-2.5-5.6-5.6-5.6s-5.6,2.5-5.6,5.6
	C103.3,176.3,105.8,178.8,108.9,178.8z"/>
<circle class="st0" cx="94.7" cy="166" r="5.6"/>
<circle class="st0" cx="83.5" cy="154.8" r="5.6"/>
<path class="st0" d="M76.3,146.2c3.1,0,5.6-2.5,5.6-5.6s-2.5-5.6-5.6-5.6c-3.1,0-5.6,2.5-5.6,5.6S73.2,146.2,76.3,146.2z"/>
<circle class="st0" cx="73.8" cy="125" r="5.6"/>
<path class="st0" d="M76.3,114.9c3.1,0,5.6-2.5,5.6-5.6c0-3.1-2.5-5.6-5.6-5.6c-3.1,0-5.6,2.5-5.6,5.6
	C70.7,112.4,73.2,114.9,76.3,114.9z"/>
<path class="st0" d="M83.5,100.7c3.1,0,5.6-2.5,5.6-5.6c0-3.1-2.5-5.6-5.6-5.6c-3.1,0-5.6,2.5-5.6,5.6
	C77.9,98.2,80.4,100.7,83.5,100.7z"/>
<path class="st0" d="M94.7,89.5c3.1,0,5.6-2.5,5.6-5.6c0-3.1-2.5-5.6-5.6-5.6c-3.1,0-5.6,2.5-5.6,5.6C89.2,87,91.6,89.5,94.7,89.5z"
	/>
<path class="st0" d="M108.9,82.3c3.1,0,5.6-2.5,5.6-5.6c0-3.1-2.5-5.6-5.6-5.6c-3.1,0-5.6,2.5-5.6,5.6
	C103.3,79.8,105.8,82.3,108.9,82.3z"/>
<circle class="st0" cx="124.5" cy="74.3" r="5.6"/>
<path class="st0" d="M140.2,82.3c3.1,0,5.6-2.5,5.6-5.6c0-3.1-2.5-5.6-5.6-5.6s-5.6,2.5-5.6,5.6C134.6,79.8,137.1,82.3,140.2,82.3z"
	/>
<circle class="st0" cx="154.3" cy="84" r="5.6"/>
<path class="st0" d="M165.6,100.8c3.1,0,5.6-2.5,5.6-5.6c0-3.1-2.5-5.6-5.6-5.6s-5.6,2.5-5.6,5.6C160,98.3,162.5,100.8,165.6,100.8z
	"/>
<path class="st0" d="M172.8,114.9c3.1,0,5.6-2.5,5.6-5.6s-2.5-5.6-5.6-5.6c-3.1,0-5.6,2.5-5.6,5.6S169.7,114.9,172.8,114.9z"/>
<circle class="st0" cx="187.9" cy="125" r="4.6"/>
<path class="st0" d="M185.9,145.4c2.6,0,4.7-2.1,4.7-4.7c0-2.6-2.1-4.7-4.7-4.7c-2.6,0-4.7,2.1-4.7,4.7
	C181.2,143.3,183.3,145.4,185.9,145.4z"/>
<circle class="st0" cx="180.1" cy="155.5" r="4.7"/>
<path class="st0" d="M170.7,173.1c2.6,0,4.7-2.1,4.7-4.7s-2.1-4.7-4.7-4.7c-2.6,0-4.7,2.1-4.7,4.7S168.2,173.1,170.7,173.1z"/>
<path class="st0" d="M158.5,183.2c2.6,0,4.7-2.1,4.7-4.7c0-2.6-2.1-4.7-4.7-4.7c-2.6,0-4.7,2.1-4.7,4.7
	C153.8,181.1,155.9,183.2,158.5,183.2z"/>
<circle class="st0" cx="144.1" cy="185.3" r="4.7"/>
<circle class="st0" cx="128.5" cy="188.2" r="4.6"/>
<path class="st0" d="M112.6,191.9c2.6,0,4.6-2.1,4.6-4.6c0-2.6-2.1-4.6-4.6-4.6c-2.6,0-4.6,2.1-4.6,4.6
	C108,189.8,110.1,191.9,112.6,191.9z"/>
<circle class="st0" cx="97.5" cy="182.3" r="4.6"/>
<path class="st0" d="M84.1,178.4c2.5,0,4.6-2.1,4.6-4.6c0-2.5-2.1-4.6-4.6-4.6c-2.5,0-4.6,2.1-4.6,4.6
	C79.5,176.4,81.6,178.4,84.1,178.4z"/>
<path class="st0" d="M73.2,166.8c2.5,0,4.6-2.1,4.6-4.6c0-2.5-2.1-4.6-4.6-4.6c-2.5,0-4.6,2.1-4.6,4.6
	C68.6,164.8,70.7,166.8,73.2,166.8z"/>
<circle class="st0" cx="65.6" cy="148.3" r="4.6"/>
<path class="st0" d="M61.6,137.5c2.5,0,4.6-2,4.6-4.6c0-2.5-2-4.6-4.6-4.6c-2.5,0-4.6,2-4.6,4.6C57.1,135.4,59.1,137.5,61.6,137.5z"
	/>
<path class="st0" d="M61.6,121.6c2.5,0,4.5-2,4.5-4.5c0-2.5-2-4.5-4.5-4.5c-2.5,0-4.5,2-4.5,4.5C57.1,119.5,59.1,121.6,61.6,121.6z"
	/>
<path class="st0" d="M65.6,106.2c2.5,0,4.5-2,4.5-4.5c0-2.5-2-4.5-4.5-4.5c-2.5,0-4.5,2-4.5,4.5C61,104.1,63.1,106.2,65.6,106.2z"/>
<path class="st0" d="M73.2,92.3c2.5,0,4.5-2,4.5-4.5c0-2.5-2-4.5-4.5-4.5c-2.5,0-4.5,2-4.5,4.5C68.7,90.2,70.7,92.3,73.2,92.3z"/>
<path class="st0" d="M84.1,80.7c2.5,0,4.5-2,4.5-4.5c0-2.5-2-4.5-4.5-4.5c-2.5,0-4.5,2-4.5,4.5C79.6,78.6,81.6,80.7,84.1,80.7z"/>
<circle class="st0" cx="97.5" cy="67.6" r="4.5"/>
<path class="st0" d="M112.6,67.2c2.5,0,4.5-2,4.5-4.5c0-2.5-2-4.5-4.5-4.5c-2.5,0-4.5,2-4.5,4.5C108.1,65.2,110.1,67.2,112.6,67.2z"
	/>
<circle class="st0" cx="128.5" cy="61.7" r="4.6"/>
<circle class="st0" cx="144.1" cy="64.7" r="4.6"/>
<path class="st0" d="M158.5,76c2.5,0,4.6-2,4.6-4.6c0-2.5-2-4.6-4.6-4.6c-2.5,0-4.6,2-4.6,4.6C153.9,74,156,76,158.5,76z"/>
<path class="st0" d="M170.7,86.2c2.5,0,4.6-2.1,4.6-4.6c0-2.5-2.1-4.6-4.6-4.6c-2.5,0-4.6,2.1-4.6,4.6
	C166.1,84.1,168.2,86.2,170.7,86.2z"/>
<path class="st0" d="M180.1,99c2.5,0,4.6-2.1,4.6-4.6c0-2.5-2.1-4.6-4.6-4.6c-2.5,0-4.6,2.1-4.6,4.6C175.5,97,177.5,99,180.1,99z"/>
<circle class="st0" cx="185.9" cy="109.2" r="4.6"/>
<circle class="st0" cx="200.6" cy="125" r="3.5"/>
<circle class="st0" cx="198.9" cy="140.8" r="3.5"/>
<circle class="st0" cx="194" cy="155.9" r="3.5"/>
<path class="st0" d="M186.1,173.2c1.9,0,3.5-1.6,3.5-3.5c0-1.9-1.6-3.5-3.5-3.5s-3.5,1.6-3.5,3.5
	C182.6,171.6,184.1,173.2,186.1,173.2z"/>
<circle class="st0" cx="175.4" cy="181.5" r="3.5"/>
<circle class="st0" cx="162.6" cy="190.9" r="3.5"/>
<circle class="st0" cx="148" cy="197.3" r="3.5"/>
<circle class="st0" cx="132.5" cy="200.6" r="3.5"/>
<path class="st0" d="M116.6,204.1c1.9,0,3.5-1.6,3.5-3.5s-1.6-3.5-3.5-3.5c-1.9,0-3.5,1.6-3.5,3.5S114.7,204.1,116.6,204.1z"/>
<path class="st0" d="M101,200.8c1.9,0,3.5-1.6,3.5-3.5s-1.6-3.5-3.5-3.5c-1.9,0-3.5,1.6-3.5,3.5S99.1,200.8,101,200.8z"/>
<path class="st0" d="M86.5,194.3c1.9,0,3.5-1.6,3.5-3.5s-1.6-3.5-3.5-3.5s-3.5,1.6-3.5,3.5S84.6,194.3,86.5,194.3z"/>
<circle class="st0" cx="73.6" cy="181.5" r="3.4"/>
<circle class="st0" cx="63" cy="169.7" r="3.4"/>
<path class="st0" d="M55,159.3c1.9,0,3.4-1.5,3.4-3.4s-1.5-3.4-3.4-3.4c-1.9,0-3.4,1.5-3.4,3.4S53.1,159.3,55,159.3z"/>
<path class="st0" d="M50.1,144.2c1.9,0,3.4-1.5,3.4-3.4s-1.5-3.4-3.4-3.4c-1.9,0-3.4,1.5-3.4,3.4S48.2,144.2,50.1,144.2z"/>
<circle class="st0" cx="48.5" cy="125" r="3.4"/>
<path class="st0" d="M50.1,112.6c1.9,0,3.4-1.5,3.4-3.4c0-1.9-1.5-3.4-3.4-3.4c-1.9,0-3.4,1.5-3.4,3.4
	C46.7,111,48.2,112.6,50.1,112.6z"/>
<path class="st0" d="M55,97.4c1.9,0,3.4-1.5,3.4-3.4c0-1.9-1.5-3.4-3.4-3.4c-1.9,0-3.4,1.5-3.4,3.4C51.7,95.9,53.2,97.4,55,97.4z"/>
<path class="st0" d="M63,83.6c1.9,0,3.4-1.5,3.4-3.4c0-1.9-1.5-3.4-3.4-3.4c-1.9,0-3.4,1.5-3.4,3.4C59.6,82.1,61.1,83.6,63,83.6z"/>
<path class="st0" d="M73.6,71.8c1.9,0,3.4-1.5,3.4-3.4c0-1.9-1.5-3.4-3.4-3.4c-1.9,0-3.4,1.5-3.4,3.4C70.2,70.3,71.8,71.8,73.6,71.8
	z"/>
<path class="st0" d="M86.5,62.5c1.9,0,3.4-1.5,3.4-3.4c0-1.9-1.5-3.4-3.4-3.4c-1.9,0-3.4,1.5-3.4,3.4C83.1,61,84.6,62.5,86.5,62.5z"
	/>
<path class="st0" d="M101,56c1.9,0,3.4-1.5,3.4-3.4c0-1.9-1.5-3.4-3.4-3.4c-1.9,0-3.4,1.5-3.4,3.4C97.6,54.5,99.2,56,101,56z"/>
<path class="st0" d="M116.6,52.7c1.9,0,3.4-1.5,3.4-3.4c0-1.9-1.5-3.4-3.4-3.4c-1.9,0-3.4,1.5-3.4,3.4
	C113.2,51.2,114.7,52.7,116.6,52.7z"/>
<circle class="st0" cx="132.5" cy="49.3" r="3.4"/>
<path class="st0" d="M148,56c1.9,0,3.4-1.5,3.4-3.4c0-1.9-1.5-3.4-3.4-3.4c-1.9,0-3.4,1.5-3.4,3.4C144.6,54.5,146.1,56,148,56z"/>
<circle class="st0" cx="162.6" cy="59.1" r="3.4"/>
<circle class="st0" cx="175.4" cy="68.4" r="3.4"/>
<path class="st0" d="M186.1,83.7c1.9,0,3.5-1.6,3.5-3.5s-1.6-3.5-3.5-3.5s-3.5,1.6-3.5,3.5S184.1,83.7,186.1,83.7z"/>
<path class="st0" d="M194,97.5c1.9,0,3.5-1.6,3.5-3.5s-1.6-3.5-3.5-3.5s-3.5,1.6-3.5,3.5S192.1,97.5,194,97.5z"/>
<path class="st0" d="M198.9,112.6c1.9,0,3.5-1.6,3.5-3.5c0-1.9-1.6-3.5-3.5-3.5s-3.5,1.6-3.5,3.5C195.5,111.1,197,112.6,198.9,112.6
	z"/>
<path class="st0" d="M213.3,127.3c1.3,0,2.4-1.1,2.4-2.4c0-1.3-1.1-2.4-2.4-2.4c-1.3,0-2.4,1.1-2.4,2.4
	C210.9,126.3,212,127.3,213.3,127.3z"/>
<path class="st0" d="M211.8,143.2c1.3,0,2.4-1.1,2.4-2.4c0-1.3-1.1-2.4-2.4-2.4c-1.3,0-2.4,1.1-2.4,2.4
	C209.5,142.1,210.5,143.2,211.8,143.2z"/>
<path class="st0" d="M207.6,158.5c1.3,0,2.4-1.1,2.4-2.4c0-1.3-1.1-2.4-2.4-2.4c-1.3,0-2.4,1.1-2.4,2.4
	C205.3,157.5,206.3,158.5,207.6,158.5z"/>
<path class="st0" d="M200.7,172.9c1.3,0,2.4-1.1,2.4-2.4c0-1.3-1.1-2.4-2.4-2.4c-1.3,0-2.4,1.1-2.4,2.4
	C198.4,171.8,199.4,172.9,200.7,172.9z"/>
<circle class="st0" cx="191.4" cy="183.4" r="2.4"/>
<path class="st0" d="M179.9,196.7c1.3,0,2.4-1.1,2.4-2.4c0-1.3-1.1-2.4-2.4-2.4c-1.3,0-2.4,1.1-2.4,2.4
	C177.5,195.7,178.6,196.7,179.9,196.7z"/>
<path class="st0" d="M166.6,205.5c1.3,0,2.4-1.1,2.4-2.4c0-1.3-1.1-2.4-2.4-2.4c-1.3,0-2.4,1.1-2.4,2.4
	C164.2,204.4,165.3,205.5,166.6,205.5z"/>
<path class="st0" d="M152,211.7c1.3,0,2.4-1.1,2.4-2.4c0-1.3-1.1-2.4-2.4-2.4c-1.3,0-2.4,1.1-2.4,2.4
	C149.6,210.7,150.6,211.7,152,211.7z"/>
<path class="st0" d="M136.4,215.3c1.3,0,2.4-1.1,2.4-2.4c0-1.3-1.1-2.4-2.4-2.4c-1.3,0-2.4,1.1-2.4,2.4
	C134.1,214.2,135.1,215.3,136.4,215.3z"/>
<path class="st0" d="M120.5,216c1.3,0,2.4-1.1,2.4-2.4c0-1.3-1.1-2.4-2.4-2.4c-1.3,0-2.4,1.1-2.4,2.4
	C118.2,214.9,119.2,216,120.5,216z"/>
<circle class="st0" cx="104.8" cy="211.5" r="2.3"/>
<path class="st0" d="M89.6,208.9c1.3,0,2.3-1,2.3-2.3c0-1.3-1-2.3-2.3-2.3c-1.3,0-2.3,1-2.3,2.3C87.3,207.9,88.4,208.9,89.6,208.9z"
	/>
<circle class="st0" cx="75.6" cy="199" r="2.3"/>
<path class="st0" d="M63.2,191.4c1.3,0,2.3-1,2.3-2.3c0-1.3-1-2.3-2.3-2.3c-1.3,0-2.3,1-2.3,2.3C60.9,190.4,61.9,191.4,63.2,191.4z"
	/>
<path class="st0" d="M52.7,179.4c1.3,0,2.3-1,2.3-2.3c0-1.3-1-2.3-2.3-2.3c-1.3,0-2.3,1-2.3,2.3C50.4,178.4,51.5,179.4,52.7,179.4z"
	/>
<path class="st0" d="M44.6,165.8c1.3,0,2.3-1,2.3-2.3s-1-2.3-2.3-2.3s-2.3,1-2.3,2.3S43.3,165.8,44.6,165.8z"/>
<path class="st0" d="M39,150.8c1.2,0,2.3-1,2.3-2.3s-1-2.2-2.3-2.2c-1.2,0-2.2,1-2.2,2.2S37.7,150.8,39,150.8z"/>
<path class="st0" d="M36.1,135.2c1.2,0,2.2-1,2.2-2.3c0-1.2-1-2.2-2.2-2.2c-1.2,0-2.3,1-2.3,2.2C33.9,134.2,34.9,135.2,36.1,135.2z"
	/>
<path class="st0" d="M36.1,119.3c1.2,0,2.2-1,2.2-2.3c0-1.2-1-2.2-2.2-2.2c-1.2,0-2.3,1-2.3,2.2C33.9,118.3,34.9,119.3,36.1,119.3z"
	/>
<path class="st0" d="M39,103.6c1.2,0,2.3-1,2.3-2.3c0-1.2-1-2.2-2.3-2.2c-1.2,0-2.2,1-2.2,2.2C36.7,102.6,37.7,103.6,39,103.6z"/>
<path class="st0" d="M44.6,88.7c1.2,0,2.2-1,2.2-2.2c0-1.2-1-2.3-2.2-2.3s-2.2,1-2.2,2.3C42.3,87.7,43.3,88.7,44.6,88.7z"/>
<circle class="st0" cx="52.7" cy="72.8" r="2.2"/>
<path class="st0" d="M63.2,63.1c1.2,0,2.2-1,2.2-2.2c0-1.2-1-2.2-2.2-2.2c-1.2,0-2.3,1-2.3,2.2C60.9,62.1,62,63.1,63.2,63.1z"/>
<circle class="st0" cx="75.6" cy="50.9" r="2.2"/>
<path class="st0" d="M89.6,45.6c1.2,0,2.3-1,2.3-2.2c0-1.2-1-2.2-2.3-2.2c-1.2,0-2.2,1-2.2,2.2C87.4,44.6,88.4,45.6,89.6,45.6z"/>
<circle class="st0" cx="104.8" cy="38.5" r="2.2"/>
<path class="st0" d="M120.5,38.6c1.2,0,2.2-1,2.2-2.2c0-1.2-1-2.2-2.2-2.2c-1.2,0-2.3,1-2.3,2.2C118.3,37.6,119.3,38.6,120.5,38.6z"
	/>
<circle class="st0" cx="136.4" cy="37" r="2.2"/>
<circle class="st0" cx="152" cy="40.6" r="2.2"/>
<path class="st0" d="M166.6,49.1c1.3,0,2.3-1,2.3-2.3c0-1.3-1-2.3-2.3-2.3c-1.3,0-2.3,1-2.3,2.3C164.3,48.1,165.3,49.1,166.6,49.1z"
	/>
<path class="st0" d="M179.9,57.9c1.3,0,2.3-1,2.3-2.3c0-1.3-1-2.3-2.3-2.3c-1.3,0-2.3,1-2.3,2.3C177.6,56.9,178.6,57.9,179.9,57.9z"
	/>
<circle class="st0" cx="191.4" cy="66.6" r="2.3"/>
<circle class="st0" cx="200.7" cy="79.5" r="2.3"/>
<path class="st0" d="M207.6,96.1c1.3,0,2.3-1,2.3-2.3c0-1.3-1-2.3-2.3-2.3c-1.3,0-2.3,1-2.3,2.3C205.3,95.1,206.3,96.1,207.6,96.1z"
	/>
<circle class="st0" cx="211.8" cy="109.1" r="2.3"/>
<circle class="st0" cx="226" cy="125" r="1.2"/>
<path class="st0" d="M224.7,142c0.7,0,1.2-0.5,1.2-1.2c0-0.7-0.5-1.2-1.2-1.2c-0.7,0-1.2,0.5-1.2,1.2C223.5,141.5,224,142,224.7,142
	z"/>
<circle class="st0" cx="221" cy="156.3" r="1.2"/>
<circle class="st0" cx="214.9" cy="171" r="1.2"/>
<circle class="st0" cx="206.6" cy="184.6" r="1.2"/>
<circle class="st0" cx="196.2" cy="196.7" r="1.2"/>
<circle class="st0" cx="184.1" cy="207" r="1.2"/>
<circle class="st0" cx="170.6" cy="215.4" r="1.2"/>
<circle class="st0" cx="155.9" cy="221.4" r="1.2"/>
<path class="st0" d="M140.4,226.4c0.7,0,1.2-0.5,1.2-1.2s-0.5-1.2-1.2-1.2c-0.7,0-1.2,0.5-1.2,1.2S139.7,226.4,140.4,226.4z"/>
<circle class="st0" cx="124.5" cy="226.4" r="1.2"/>
<circle class="st0" cx="108.7" cy="225.2" r="1.2"/>
<circle class="st0" cx="93.2" cy="221.4" r="1.2"/>
<path class="st0" d="M78.5,216.5c0.6,0,1.2-0.5,1.2-1.2c0-0.6-0.5-1.2-1.2-1.2c-0.6,0-1.2,0.5-1.2,1.2
	C77.3,216,77.8,216.5,78.5,216.5z"/>
<path class="st0" d="M64.9,208.2c0.6,0,1.2-0.5,1.2-1.2c0-0.6-0.5-1.2-1.2-1.2c-0.6,0-1.2,0.5-1.2,1.2
	C63.7,207.7,64.3,208.2,64.9,208.2z"/>
<path class="st0" d="M52.8,197.9c0.6,0,1.2-0.5,1.2-1.2s-0.5-1.2-1.2-1.2c-0.6,0-1.2,0.5-1.2,1.2S52.2,197.9,52.8,197.9z"/>
<circle class="st0" cx="42.5" cy="184.6" r="1.1"/>
<circle class="st0" cx="34.2" cy="171" r="1.1"/>
<circle class="st0" cx="28.1" cy="156.3" r="1.1"/>
<path class="st0" d="M24.3,141.9c0.6,0,1.1-0.5,1.1-1.1c0-0.6-0.5-1.1-1.1-1.1c-0.6,0-1.1,0.5-1.1,1.1
	C23.3,141.4,23.7,141.9,24.3,141.9z"/>
<circle class="st0" cx="23.1" cy="125" r="1.1"/>
<path class="st0" d="M24.3,110.2c0.6,0,1.1-0.5,1.1-1.1c0-0.6-0.5-1.1-1.1-1.1c-0.6,0-1.1,0.5-1.1,1.1
	C23.3,109.7,23.7,110.2,24.3,110.2z"/>
<path class="st0" d="M28.1,94.7c0.6,0,1.1-0.5,1.1-1.1c0-0.6-0.5-1.1-1.1-1.1c-0.6,0-1.1,0.5-1.1,1.1C27,94.2,27.5,94.7,28.1,94.7z"
	/>
<path class="st0" d="M34.2,80c0.6,0,1.1-0.5,1.1-1.1c0-0.6-0.5-1.1-1.1-1.1c-0.6,0-1.1,0.5-1.1,1.1C33.1,79.5,33.6,80,34.2,80z"/>
<path class="st0" d="M42.5,66.5c0.6,0,1.1-0.5,1.1-1.1c0-0.6-0.5-1.1-1.1-1.1c-0.6,0-1.1,0.5-1.1,1.1C41.4,66,41.9,66.5,42.5,66.5z"
	/>
<path class="st0" d="M52.8,54.4c0.6,0,1.1-0.5,1.1-1.1c0-0.6-0.5-1.1-1.1-1.1c-0.6,0-1.1,0.5-1.1,1.1C51.7,53.9,52.2,54.4,52.8,54.4
	z"/>
<path class="st0" d="M64.9,44c0.6,0,1.1-0.5,1.1-1.1c0-0.6-0.5-1.1-1.1-1.1c-0.6,0-1.1,0.5-1.1,1.1C63.8,43.5,64.3,44,64.9,44z"/>
<path class="st0" d="M78.5,35.7c0.6,0,1.1-0.5,1.1-1.1c0-0.6-0.5-1.1-1.1-1.1c-0.6,0-1.1,0.5-1.1,1.1C77.4,35.2,77.9,35.7,78.5,35.7
	z"/>
<path class="st0" d="M93.2,29.6c0.6,0,1.1-0.5,1.1-1.1c0-0.6-0.5-1.1-1.1-1.1c-0.6,0-1.1,0.5-1.1,1.1C92.1,29.1,92.6,29.6,93.2,29.6
	z"/>
<path class="st0" d="M108.7,25.9c0.6,0,1.1-0.5,1.1-1.1c0-0.6-0.5-1.1-1.1-1.1c-0.6,0-1.1,0.5-1.1,1.1
	C107.6,25.4,108.1,25.9,108.7,25.9z"/>
<circle class="st0" cx="124.5" cy="23.6" r="1.1"/>
<path class="st0" d="M140.4,25.9c0.6,0,1.1-0.5,1.1-1.1c0-0.6-0.5-1.1-1.1-1.1c-0.6,0-1.1,0.5-1.1,1.1
	C139.3,25.4,139.8,25.9,140.4,25.9z"/>
<circle class="st0" cx="155.9" cy="28.5" r="1.1"/>
<circle class="st0" cx="170.6" cy="34.6" r="1.1"/>
<circle class="st0" cx="184.1" cy="42.9" r="1.1"/>
<path class="st0" d="M196.2,54.4c0.6,0,1.2-0.5,1.2-1.2c0-0.6-0.5-1.2-1.2-1.2c-0.6,0-1.2,0.5-1.2,1.2
	C195.1,53.9,195.6,54.4,196.2,54.4z"/>
<path class="st0" d="M206.6,66.5c0.6,0,1.2-0.5,1.2-1.2c0-0.6-0.5-1.2-1.2-1.2s-1.2,0.5-1.2,1.2C205.4,66,205.9,66.5,206.6,66.5z"/>
<path class="st0" d="M214.9,80.1c0.6,0,1.2-0.5,1.2-1.2c0-0.6-0.5-1.2-1.2-1.2s-1.2,0.5-1.2,1.2C213.7,79.6,214.3,80.1,214.9,80.1z"
	/>
<circle class="st0" cx="221" cy="93.6" r="1.2"/>
<circle class="st0" cx="224.7" cy="109.1" r="1.2"/>
<path class="st0" d="M23.8,178.7c0.1,0,0.1,0,0.1-0.1c0-0.1,0-0.1-0.1-0.1c-0.1,0-0.1,0-0.1,0.1C23.7,178.6,23.7,178.7,23.8,178.7z"
	/>
</svg>
