<?xml version="1.0" encoding="utf-8"?>
<!-- Generator: Adobe Illustrator 24.1.0, SVG Export Plug-In . SVG Version: 6.00 Build 0)  -->
<svg version="1.1" id="Layer_1" xmlns="http://www.w3.org/2000/svg" xmlns:xlink="http://www.w3.org/1999/xlink" x="0px" y="0px"
	 viewBox="0 0 64 64" style="enable-background:new 0 0 64 64;" xml:space="preserve">
<style type="text/css">
	.st0{fill:#FFCF24;}
	.st1{fill:#110079;}
</style>
<circle class="st0" cx="18.1" cy="32" r="17.1"/>
<g id="SVGRepo_bgCarrier">
</g>
<g id="SVGRepo_tracerCarrier">
</g>
<g id="SVGRepo_iconCarrier">
	<path class="st1" d="M45.6,15H21.8c-1.2,0-2.5,0.4-3.4,1.3c-0.9,0.9-1.4,2-1.5,3.3v24c0.1,1.5,0.7,2.8,1.7,3.8c1.1,1,2.5,1.5,4,1.5
		h22.9c0.4,0,0.8-0.2,1-0.4c0.3-0.3,0.4-0.6,0.4-1v-31c0-0.4-0.2-0.8-0.4-1C46.3,15.2,46,15,45.6,15z M44.1,46.1H22.7
		c-0.7,0-1.4-0.2-1.9-0.6c-0.5-0.5-0.8-1.1-0.9-1.8c0-0.7,0.4-1.3,0.9-1.8c0.5-0.5,1.2-0.7,1.9-0.6h21.4V46.1z M44.1,38.3H22.7
		c-1,0-1.9,0.2-2.8,0.7V19.6c0-0.5,0.3-0.9,0.6-1.2c0.4-0.3,0.8-0.5,1.3-0.4h22.3V38.3z"/>
	<path class="st1" d="M25.7,25.7h12.6c0.4,0,0.8-0.2,1-0.4c0.3-0.3,0.4-0.6,0.4-1s-0.2-0.8-0.4-1c-0.3-0.3-0.6-0.4-1-0.4H25.7
		c-0.4,0-0.8,0.2-1,0.4c-0.3,0.3-0.4,0.6-0.4,1s0.2,0.8,0.4,1C24.9,25.5,25.3,25.7,25.7,25.7z"/>
	<path class="st1" d="M25.7,32.5h12.6c0.4,0,0.8-0.2,1-0.4c0.3-0.3,0.4-0.6,0.4-1c0-0.4-0.2-0.8-0.4-1c-0.3-0.3-0.6-0.4-1-0.4H25.7
		c-0.4,0-0.8,0.2-1,0.4c-0.3,0.3-0.4,0.6-0.4,1c0,0.4,0.2,0.8,0.4,1C24.9,32.3,25.3,32.5,25.7,32.5z"/>
</g>
</svg>
