<?xml version="1.0" encoding="utf-8"?>
<!-- Generator: Adobe Illustrator 24.1.0, SVG Export Plug-In . SVG Version: 6.00 Build 0)  -->
<svg version="1.1" id="Layer_1" xmlns="http://www.w3.org/2000/svg" xmlns:xlink="http://www.w3.org/1999/xlink" x="0px" y="0px"
	 viewBox="0 0 64 64" style="enable-background:new 0 0 64 64;" xml:space="preserve">
<style type="text/css">
	.st0{fill:#FFCF24;}
	.st1{fill:none;stroke:#110079;stroke-width:3.2;stroke-miterlimit:10.6667;}
	.st2{fill:none;stroke:#110079;stroke-width:3.2;stroke-linejoin:round;stroke-miterlimit:10.6667;}
</style>
<g id="SVGRepo_bgCarrier">
</g>
<g id="SVGRepo_tracerCarrier">
</g>
<circle class="st0" cx="18.1" cy="32" r="17.1"/>
<g id="SVGRepo_iconCarrier_2_">
	<path class="st1" d="M38.6,32c0,3.5-2.9,6.4-6.4,6.4s-6.4-2.9-6.4-6.4s2.9-6.4,6.4-6.4S38.6,28.5,38.6,32z"/>
	<path class="st2" d="M21.4,21.4c5.8-5.8,15.3-5.8,21.1,0l4.5,4.5c2.8,2.8,4.3,4.3,4.3,6c0,1.8-1.4,3.2-4.3,6l-4.5,4.5
		c-5.8,5.8-15.3,5.8-21.1,0L16.9,38c-2.8-2.8-4.3-4.3-4.3-6c0-1.8,1.4-3.2,4.3-6L21.4,21.4z"/>
</g>
</svg>
